<?xml version="1.0" encoding="iso-8859-1"?>
<!-- Generator: Adobe Illustrator 19.0.0, SVG Export Plug-In . SVG Version: 6.00 Build 0)  -->
<svg version="1.1" id="Capa_1" xmlns="http://www.w3.org/2000/svg" xmlns:xlink="http://www.w3.org/1999/xlink" x="0px" y="0px"
	 viewBox="0 0 488 488" style="enable-background:new 0 0 488 488;" xml:space="preserve">
<g>
	<g>
		<path d="M464,231.392V74.528c9.288-3.312,16-12.112,16-22.528V28c0-13.232-10.768-24-24-24s-24,10.768-24,24v24
			c0,10.416,6.712,19.216,16,22.528V228H344v-56c0-1.576-0.472-3.128-1.344-4.44l-16-24c-1.488-2.224-3.984-3.56-6.656-3.56v-36
			c0-28.672-23.328-52-52-52s-52,23.328-52,52v340c0,13.232-10.768,24-24,24s-24-10.768-24-24V212c0-22.056-17.944-40-40-40
			c-22.056,0-40,17.944-40,40v232c0,13.232-10.768,24-24,24s-24-10.768-24-24V148h40c4.424,0,8-3.584,8-8v-32c0-4.416-3.576-8-8-8
			H40V84h16c4.424,0,8-3.584,8-8V36C64,18.352,49.648,4,32,4S0,18.352,0,36v40c0,4.416,3.576,8,8,8h16v16c-4.424,0-8,3.584-8,8v32
			c0,4.416,3.576,8,8,8v296c0,22.056,17.944,40,40,40c22.056,0,40-17.944,40-40V212c0-13.232,10.768-24,24-24s24,10.768,24,24v232
			c0,22.056,17.944,40,40,40c22.056,0,40-17.944,40-40V104c0-19.848,16.152-36,36-36c19.848,0,36,16.152,36,36v36
			c-2.672,0-5.168,1.336-6.656,3.56l-16,24c-0.872,1.312-1.344,2.864-1.344,4.44v56.808c-18.232,3.72-32,19.872-32,39.192v176
			c0,22.056,17.944,40,40,40h160c22.056,0,40-17.944,40-40V268C488,251.64,478.104,237.584,464,231.392z M16,68V36
			c0-8.824,7.176-16,16-16s16,7.176,16,16v32H16z M32,132v-16h40v16H32z M448,28c0-4.408,3.584-8,8-8c4.416,0,8,3.592,8,8v24
			c0,4.408-3.584,8-8,8c-4.416,0-8-3.592-8-8V28z M296,174.424L308.28,156h7.44L328,174.424V228h-32V174.424z M472,444
			c0,13.232-10.768,24-24,24H288c-13.232,0-24-10.768-24-24V268c0-13.232,10.768-24,24-24h48h112c13.232,0,24,10.768,24,24V444z"/>
	</g>
</g>
<g>
	<g>
		<path d="M384,276h-80c-4.424,0-8,3.584-8,8v48c0,4.416,3.576,8,8,8h80c4.424,0,8-3.584,8-8v-48C392,279.584,388.424,276,384,276z
			 M376,324h-64v-32h64V324z"/>
	</g>
</g>
<g>
	<g>
		<path d="M431.032,332c-6.576,0-13.008,2.664-17.656,7.312l-22.064,22.064c-4.72,4.712-7.312,10.984-7.312,17.656
			C384,392.8,395.2,404,408.968,404c6.576,0,13.008-2.664,17.656-7.312l22.064-22.064c4.72-4.712,7.312-10.984,7.312-17.656
			C456,343.2,444.8,332,431.032,332z M437.376,363.312l-22.064,22.064c-1.672,1.664-3.984,2.624-6.344,2.624
			c-4.944,0-8.968-4.024-8.968-8.968c0-2.4,0.928-4.648,2.624-6.344l22.064-22.064c1.672-1.664,3.984-2.624,6.344-2.624
			c4.944,0,8.968,4.024,8.968,8.968C440,359.368,439.072,361.616,437.376,363.312z"/>
	</g>
</g>
<g>
	<g>
		<rect x="408" y="276" width="16" height="16"/>
	</g>
</g>
<g>
	<g>
		<rect x="440" y="276" width="16" height="16"/>
	</g>
</g>
<g>
	<g>
		<rect x="296" y="404" width="64" height="16"/>
	</g>
</g>
<g>
	<g>
		<rect x="296" y="436" width="96" height="16"/>
	</g>
</g>
<g>
</g>
<g>
</g>
<g>
</g>
<g>
</g>
<g>
</g>
<g>
</g>
<g>
</g>
<g>
</g>
<g>
</g>
<g>
</g>
<g>
</g>
<g>
</g>
<g>
</g>
<g>
</g>
<g>
</g>
</svg>
