<?xml version="1.0" encoding="iso-8859-1"?>
<!-- Generator: Adobe Illustrator 19.0.0, SVG Export Plug-In . SVG Version: 6.00 Build 0)  -->
<svg version="1.1" id="Capa_1" xmlns="http://www.w3.org/2000/svg" xmlns:xlink="http://www.w3.org/1999/xlink" x="0px" y="0px"
	 viewBox="0 0 480 480" style="enable-background:new 0 0 480 480;" xml:space="preserve">
<g>
	<g>
		<path d="M444,144c19.848,0,36-16.152,36-36c0-20.824-5.904-40.76-17.128-58.176C465.696,48.664,468.768,48,472,48
			c4.416,0,8-3.576,8-8s-3.584-8-8-8c-13.232,0-24-10.768-24-24c0-4.424-3.584-8-8-8c-4.416,0-8,3.576-8,8
			c0,3.232-0.664,6.304-1.824,9.12C412.768,5.904,392.824,0,372,0H108C48.448,0,0,48.448,0,108c0,19.848,16.152,36,36,36
			c9.88,0,18.048,7.208,19.664,16.64c-13.584,1.784-26.2,7.696-36.224,17.424C6.904,190.224,0,206.536,0,224
			c0,22.8,12.408,44,32,55.36V440c0,22.056,17.944,40,40,40h336c22.056,0,40-17.944,40-40V279.36C467.592,268,480,246.8,480,224
			c0-17.464-6.904-33.776-19.432-45.936c-10.032-9.728-22.664-15.64-36.224-17.424C425.952,151.208,434.12,144,444,144z M440,31.976
			c2.28,3.04,4.992,5.744,8.024,8.024c-3.032,2.28-5.744,4.984-8.024,8.024c-2.28-3.04-4.992-5.744-8.024-8.024
			C435.008,37.72,437.72,35.016,440,31.976z M449.424,189.544C458.824,198.672,464,210.904,464,224
			c0,18.384-10.768,35.384-27.44,43.312c-2.784,1.328-4.56,4.144-4.56,7.224V440c0,13.232-10.768,24-24,24H72
			c-13.232,0-24-10.768-24-24V274.536c0-3.088-1.776-5.896-4.56-7.224C26.768,259.384,16,242.384,16,224
			c0-13.096,5.176-25.328,14.576-34.456C39.616,180.776,51.432,176,63.992,176c0.496,0,1,0.008,1.496,0.024
			C91.136,176.792,112,199.368,112,226.352V320v32v56c0,4.424,3.584,8,8,8h240c4.416,0,8-3.576,8-8v-56v-32v-93.648
			c0-26.984,20.864-49.56,46.52-50.328C427.424,175.568,440.024,180.424,449.424,189.544z M301.928,112h87.936L257.96,256.464
			L301.928,112z M240,260.52L194.792,112h90.416L240,260.52z M313.624,96L352,52.144L390.376,96H313.624z M296,91.848L257.624,48
			h76.744L296,91.848z M278.376,96h-76.752L240,52.144L278.376,96z M184,91.848L145.624,48h76.744L184,91.848z M166.376,96H89.632
			L128,52.144L166.376,96z M178.072,112l43.968,144.464L90.144,112H178.072z M328,296c13.232,0,24,10.768,24,24v24H128v-24
			c0-13.232,10.768-24,24-24H328z M352,360v40H128v-40H352z M408.352,160.496C376.8,164.44,352,192.808,352,226.352v61.856
			c-6.704-5.08-14.96-8.208-24-8.208h-69.864l155.776-170.608c2.744-3,2.8-7.592,0.112-10.656l-56-64
			C356.496,32.992,354.312,32,352,32H128c-2.312,0-4.496,0.992-6.016,2.736l-56,64c-2.68,3.064-2.632,7.656,0.112,10.656
			L221.864,280H152c-9.04,0-17.296,3.128-24,8.208v-61.856c0-33.544-24.8-61.912-56.352-65.856C69.856,142.304,54.648,128,36,128
			c-11.024,0-20-8.968-20-20c0-50.728,41.272-92,92-92h264c16.792,0,32.92,4.504,47.184,13.104c-0.072,0.04-0.136,0.08-0.208,0.112
			c-1.448,0.768-2.976,1.344-4.536,1.792c-0.312,0.088-0.6,0.208-0.912,0.288C411.72,31.736,409.872,32,408,32c-4.416,0-8,3.576-8,8
			s3.584,8,8,8c13.232,0,24,10.768,24,24c0,4.424,3.584,8,8,8c4.416,0,8-3.576,8-8c0-1.872,0.264-3.712,0.696-5.504
			c0.08-0.328,0.208-0.64,0.304-0.968c0.448-1.536,1.008-3.04,1.76-4.456c0.04-0.08,0.088-0.16,0.128-0.24
			C459.496,75.096,464,91.208,464,108c0,11.032-8.976,20-20,20C425.352,128,410.144,142.304,408.352,160.496z"/>
	</g>
</g>
<g>
	<g>
		<rect x="200" y="312" width="16" height="16"/>
	</g>
</g>
<g>
	<g>
		<rect x="232" y="312" width="16" height="16"/>
	</g>
</g>
<g>
	<g>
		<rect x="264" y="312" width="16" height="16"/>
	</g>
</g>
<g>
</g>
<g>
</g>
<g>
</g>
<g>
</g>
<g>
</g>
<g>
</g>
<g>
</g>
<g>
</g>
<g>
</g>
<g>
</g>
<g>
</g>
<g>
</g>
<g>
</g>
<g>
</g>
<g>
</g>
</svg>
