<?xml version="1.0" encoding="iso-8859-1"?>
<!-- Generator: Adobe Illustrator 19.0.0, SVG Export Plug-In . SVG Version: 6.00 Build 0)  -->
<svg version="1.1" id="Capa_1" xmlns="http://www.w3.org/2000/svg" xmlns:xlink="http://www.w3.org/1999/xlink" x="0px" y="0px"
	 viewBox="0 0 480 480" style="enable-background:new 0 0 480 480;" xml:space="preserve">
<g>
	<g>
		<path d="M455.728,99.328C453.408,79.464,436.48,64,416,64c-22.056,0-40,17.944-40,40c0,2.712,0.28,5.376,0.832,8h-23.648
			C324.216,43.816,258.464,0,184,0C82.536,0,0,82.536,0,184v104c0,4.424,3.576,8,8,8h32v96c0,4.424,3.576,8,8,8h112h8v64h-56v16h64
			c4.424,0,8-3.576,8-8v-72h24v-16h-32h-16H56v-96c0-4.424-3.576-8-8-8H16v-96C16,91.368,91.368,16,184,16
			c65.704,0,124.072,37.304,151.792,96h-24.6C307.472,93.768,291.32,80,272,80c-0.264,0-0.528,0-0.808,0.008
			C267.488,61.768,251.32,48,232,48c-4.944,0-9.792,0.896-14.32,2.64C210.464,39.216,197.824,32,184,32
			c-13.824,0-26.464,7.216-33.68,18.64C145.792,48.896,140.944,48,136,48c-19.552,0-35.872,14.104-39.328,32.672
			C78.104,84.128,64,100.448,64,120c0,1.088,0.056,2.176,0.168,3.288C49.8,129.512,40,143.896,40,160c0,22.056,17.944,40,40,40h216
			c22.056,0,40-17.944,40-40h14.248c1.168,8.032,1.752,16.08,1.752,24v296h16V184c0-7.936-0.72-15.968-1.784-24h10.616
			c-0.552,2.624-0.832,5.288-0.832,8c0,22.056,17.944,40,40,40c20.48,0,37.408-15.464,39.728-35.328
			C470.28,166.472,480,152.152,480,136S470.28,105.528,455.728,99.328z M296,184H80c-13.232,0-24-10.768-24-24
			c0-11.264,7.992-21.136,19.008-23.464c2.168-0.464,4.048-1.8,5.192-3.696c1.144-1.888,1.456-4.176,0.84-6.312
			C80.336,124,80,121.928,80,120c0-13.232,10.768-24,24-24c4.424,0,8-3.576,8-8c0-13.232,10.768-24,24-24
			c4.824,0,9.464,1.424,13.432,4.112c2.056,1.392,4.664,1.76,6.992,0.968c2.36-0.784,4.224-2.608,5.048-4.952
			C164.84,54.488,173.896,48,184,48s19.16,6.488,22.528,16.128c0.824,2.344,2.688,4.168,5.048,4.952
			c2.336,0.792,4.944,0.424,6.992-0.968C222.536,65.424,227.176,64,232,64c13.232,0,24,10.768,24.024,23.504
			c-0.04,0.264-0.128,1.08-0.136,1.352c-0.104,2.528,1.008,4.968,2.984,6.552c1.984,1.576,4.584,2.136,7.048,1.496
			C268.272,96.288,270.2,96,272,96c10.432,0,19.328,6.688,22.632,16H200v-8h-16v16v32v16h16v-8h120C320,173.232,309.232,184,296,184
			z M445.912,159.16c-3.664,0.936-6.176,4.312-6.016,8.096c0.016,0.384,0.056,0.768,0.096,0.768c0,0,0.008-0.008,0.008-0.016
			c0,13.232-10.768,24-24,24s-24-10.768-24-24c0-4.128,1.128-8.16,3.352-11.976c1.44-2.48,1.448-5.528,0.024-8.016
			c-1.432-2.488-4.08-4.016-6.936-4.016h-31.392h-30.176H200v-16h104h43.944h40.496c2.856,0,5.504-1.528,6.936-4.008
			c1.424-2.488,1.416-5.536-0.024-8.016C393.128,112.16,392,108.128,392,104c0-13.232,10.768-24,24-24s24,10.768,24.024,23.48
			c-0.04,0.264-0.12,1.016-0.128,1.272c-0.168,3.784,2.352,7.16,6.016,8.096C456.56,115.56,464,125.088,464,136
			S456.56,156.44,445.912,159.16z"/>
	</g>
</g>
<g>
	<g>
		<rect x="184" y="216" width="16" height="16"/>
	</g>
</g>
<g>
	<g>
		<rect x="152" y="248" width="16" height="16"/>
	</g>
</g>
<g>
	<g>
		<rect x="184" y="248" width="16" height="16"/>
	</g>
</g>
<g>
	<g>
		<rect x="216" y="248" width="16" height="16"/>
	</g>
</g>
<g>
	<g>
		<rect x="152" y="280" width="16" height="16"/>
	</g>
</g>
<g>
	<g>
		<rect x="120" y="280" width="16" height="16"/>
	</g>
</g>
<g>
	<g>
		<rect x="184" y="280" width="16" height="16"/>
	</g>
</g>
<g>
	<g>
		<rect x="216" y="280" width="16" height="16"/>
	</g>
</g>
<g>
	<g>
		<rect x="248" y="280" width="16" height="16"/>
	</g>
</g>
<g>
	<g>
		<circle cx="440" cy="136" r="8"/>
	</g>
</g>
<g>
</g>
<g>
</g>
<g>
</g>
<g>
</g>
<g>
</g>
<g>
</g>
<g>
</g>
<g>
</g>
<g>
</g>
<g>
</g>
<g>
</g>
<g>
</g>
<g>
</g>
<g>
</g>
<g>
</g>
</svg>
