<?xml version="1.0" encoding="iso-8859-1"?>
<!-- Generator: Adobe Illustrator 19.0.0, SVG Export Plug-In . SVG Version: 6.00 Build 0)  -->
<svg version="1.1" id="Capa_1" xmlns="http://www.w3.org/2000/svg" xmlns:xlink="http://www.w3.org/1999/xlink" x="0px" y="0px"
	 viewBox="0 0 480 480" style="enable-background:new 0 0 480 480;" xml:space="preserve">
<g>
	<g>
		<path d="M440,127.998h-80c-13.128,0-24.704,6.448-32,16.248c-7.296-9.8-18.872-16.248-32-16.248H40c-22.056,0-40,17.944-40,40v144
			c0,22.056,17.944,40,40,40h256c13.128,0,24.704-6.448,32-16.248c7.296,9.8,18.872,16.248,32,16.248h80c22.056,0,40-17.944,40-40
			v-144C480,145.942,462.056,127.998,440,127.998z M464,311.998c0,13.232-10.768,24-24,24h-80c-13.232,0-24-10.768-24-24h-16
			c0,13.232-10.768,24-24,24H40c-13.232,0-24-10.768-24-24v-128h304v-16H16c0-13.232,10.768-24,24-24h256c13.232,0,24,10.768,24,24
			h16c0-13.232,10.768-24,24-24h80c13.232,0,24,10.768,24,24V311.998z"/>
	</g>
</g>
<g>
	<g>
		<rect x="320" y="183.998" width="16" height="16"/>
	</g>
</g>
<g>
	<g>
		<rect x="320" y="215.998" width="16" height="16"/>
	</g>
</g>
<g>
	<g>
		<rect x="320" y="247.998" width="16" height="16"/>
	</g>
</g>
<g>
	<g>
		<rect x="320" y="279.998" width="16" height="16"/>
	</g>
</g>
<g>
	<g>
		<path d="M280,207.998h-48c-4.424,0-8,3.584-8,8v48c0,4.416,3.576,8,8,8h48c4.424,0,8-3.584,8-8v-48
			C288,211.582,284.424,207.998,280,207.998z M272,255.998h-32v-32h32V255.998z"/>
	</g>
</g>
<g>
	<g>
		<path d="M424,159.998h-48c-4.424,0-8,3.584-8,8v48c0,4.416,3.576,8,8,8h48c4.424,0,8-3.584,8-8v-48
			C432,163.582,428.424,159.998,424,159.998z M416,207.998h-32v-32h32V207.998z"/>
	</g>
</g>
<g>
	<g>
		<rect x="64" y="287.998" width="16" height="32"/>
	</g>
</g>
<g>
	<g>
		<rect x="96" y="287.998" width="16" height="32"/>
	</g>
</g>
<g>
	<g>
		<rect x="128" y="287.998" width="16" height="32"/>
	</g>
</g>
<g>
	<g>
		<rect x="160" y="287.998" width="16" height="32"/>
	</g>
</g>
<g>
	<g>
		<rect x="192" y="287.998" width="16" height="32"/>
	</g>
</g>
<g>
	<g>
		<rect x="224" y="287.998" width="16" height="32"/>
	</g>
</g>
<g>
	<g>
		<rect x="40" y="223.998" width="72" height="16"/>
	</g>
</g>
<g>
	<g>
		<rect x="144" y="223.998" width="40" height="16"/>
	</g>
</g>
<g>
	<g>
		<rect x="40" y="255.998" width="40" height="16"/>
	</g>
</g>
<g>
	<g>
		<rect x="104" y="255.998" width="40" height="16"/>
	</g>
</g>
<g>
	<g>
		<rect x="168" y="255.998" width="16" height="16"/>
	</g>
</g>
<g>
	<g>
		<rect x="352" y="239.998" width="96" height="16"/>
	</g>
</g>
<g>
	<g>
		<rect x="352" y="271.998" width="96" height="16"/>
	</g>
</g>
<g>
	<g>
		<rect x="352" y="303.998" width="96" height="16"/>
	</g>
</g>
<g>
	<g>
		<path d="M231.752,0.142l0.544,15.992c5.24-0.176,10.56-0.168,15.792,0.008l0.56-15.992C243.048-0.05,237.368-0.042,231.752,0.142z
			"/>
	</g>
</g>
<g>
	<g>
		<path d="M413.96,74.694L402.352,85.71c3.624,3.816,7.144,7.792,10.464,11.816L425.16,87.35
			C421.608,83.038,417.84,78.782,413.96,74.694z"/>
	</g>
</g>
<g>
	<g>
		<path d="M181.6,7.166c-5.488,1.368-10.952,2.952-16.264,4.688l4.984,15.2c4.952-1.624,10.056-3.096,15.16-4.368L181.6,7.166z"/>
	</g>
</g>
<g>
	<g>
		<path d="M265.512,1.342l-1.672,15.912c5.2,0.544,10.456,1.288,15.616,2.208l2.8-15.752C276.736,2.726,271.096,1.926,265.512,1.342
			z"/>
	</g>
</g>
<g>
	<g>
		<path d="M214.888,1.302c-5.56,0.576-11.192,1.36-16.744,2.336l2.768,15.76c5.176-0.912,10.44-1.648,15.632-2.184L214.888,1.302z"
			/>
	</g>
</g>
<g>
	<g>
		<path d="M298.768,7.262l-3.896,15.512c5.064,1.272,10.16,2.752,15.136,4.384l5-15.192C309.672,10.206,304.2,8.622,298.768,7.262z"
			/>
	</g>
</g>
<g>
	<g>
		<path d="M91.232,51.694C86.816,55.19,82.48,58.87,78.36,62.646l10.776,11.816c3.856-3.52,7.904-6.96,12.032-10.224L91.232,51.694z
			"/>
	</g>
</g>
<g>
	<g>
		<path d="M149.456,17.678c-5.176,2.112-10.368,4.448-15.424,6.936l7.08,14.36c4.712-2.328,9.552-4.504,14.392-6.48L149.456,17.678z
			"/>
	</g>
</g>
<g>
	<g>
		<path d="M66.28,74.47c-3.856,4.048-7.64,8.304-11.224,12.632l12.32,10.208c3.352-4.048,6.872-8.016,10.48-11.808L66.28,74.47z"/>
	</g>
</g>
<g>
	<g>
		<path d="M330.864,17.814l-6.08,14.808c4.896,2,9.728,4.184,14.384,6.488l7.096-14.336
			C341.28,22.302,336.096,19.958,330.864,17.814z"/>
	</g>
</g>
<g>
	<g>
		<path d="M389.024,51.886l-9.944,12.536c4.112,3.264,8.152,6.712,12.008,10.24l10.8-11.808
			C397.76,59.078,393.432,55.382,389.024,51.886z"/>
	</g>
</g>
<g>
	<g>
		<path d="M361.144,32.798l-8.08,13.808c4.496,2.632,8.984,5.472,13.312,8.44l9.048-13.192
			C370.784,38.67,365.976,35.622,361.144,32.798z"/>
	</g>
</g>
<g>
	<g>
		<path d="M119.128,32.63c-4.872,2.848-9.68,5.888-14.288,9.04l9.032,13.216c4.296-2.936,8.784-5.776,13.336-8.44L119.128,32.63z"/>
	</g>
</g>
<g>
	<g>
		<path d="M88.912,405.334l-10.8,11.808c4.128,3.776,8.456,7.464,12.872,10.96l9.936-12.528
			C96.808,412.31,92.768,408.862,88.912,405.334z"/>
	</g>
</g>
<g>
	<g>
		<path d="M390.864,405.526c-3.856,3.52-7.904,6.96-12.032,10.224l9.944,12.552c4.416-3.496,8.752-7.176,12.872-10.952
			L390.864,405.526z"/>
	</g>
</g>
<g>
	<g>
		<path d="M309.68,452.942c-4.952,1.624-10.056,3.096-15.16,4.368l3.88,15.52c5.488-1.368,10.952-2.952,16.264-4.688L309.68,452.942
			z"/>
	</g>
</g>
<g>
	<g>
		<path d="M412.624,382.686c-3.352,4.048-6.872,8.016-10.48,11.808l11.584,11.024c3.856-4.048,7.64-8.304,11.224-12.632
			L412.624,382.686z"/>
	</g>
</g>
<g>
	<g>
		<path d="M338.888,441.03c-4.712,2.328-9.552,4.504-14.392,6.48l6.048,14.808c5.176-2.112,10.368-4.448,15.424-6.936
			L338.888,441.03z"/>
	</g>
</g>
<g>
	<g>
		<path d="M279.088,460.598c-5.176,0.912-10.44,1.648-15.632,2.184l1.656,15.912c5.56-0.576,11.192-1.36,16.744-2.336
			L279.088,460.598z"/>
	</g>
</g>
<g>
	<g>
		<path d="M140.832,440.878l-7.096,14.336c4.984,2.48,10.16,4.824,15.4,6.968l6.08-14.808
			C150.328,445.374,145.488,443.182,140.832,440.878z"/>
	</g>
</g>
<g>
	<g>
		<path d="M366.12,425.11c-4.296,2.936-8.784,5.776-13.336,8.44l8.08,13.808c4.872-2.848,9.68-5.888,14.288-9.04L366.12,425.11z"/>
	</g>
</g>
<g>
	<g>
		<path d="M247.704,463.862c-5.232,0.176-10.552,0.176-15.792-0.008l-0.56,15.992c2.864,0.104,5.752,0.152,8.648,0.152
			c2.768,0,5.504-0.048,8.248-0.144L247.704,463.862z"/>
	</g>
</g>
<g>
	<g>
		<path d="M113.624,424.942l-9.048,13.192c4.64,3.192,9.448,6.24,14.28,9.064l8.08-13.808
			C122.44,430.75,117.952,427.91,113.624,424.942z"/>
	</g>
</g>
<g>
	<g>
		<path d="M67.184,382.462L54.84,392.638c3.56,4.32,7.328,8.576,11.208,12.664l11.608-11.016
			C74.024,390.462,70.504,386.486,67.184,382.462z"/>
	</g>
</g>
<g>
	<g>
		<path d="M169.984,452.838l-5,15.192c5.344,1.76,10.816,3.344,16.248,4.704l3.888-15.512
			C180.056,455.95,174.96,454.47,169.984,452.838z"/>
	</g>
</g>
<g>
	<g>
		<path d="M200.552,460.542l-2.8,15.752c5.52,0.976,11.152,1.776,16.744,2.368l1.672-15.912
			C210.968,462.206,205.704,461.454,200.552,460.542z"/>
	</g>
</g>
<g>
</g>
<g>
</g>
<g>
</g>
<g>
</g>
<g>
</g>
<g>
</g>
<g>
</g>
<g>
</g>
<g>
</g>
<g>
</g>
<g>
</g>
<g>
</g>
<g>
</g>
<g>
</g>
<g>
</g>
</svg>
