<?xml version="1.0" encoding="iso-8859-1"?>
<!-- Generator: Adobe Illustrator 19.0.0, SVG Export Plug-In . SVG Version: 6.00 Build 0)  -->
<svg version="1.1" id="Capa_1" xmlns="http://www.w3.org/2000/svg" xmlns:xlink="http://www.w3.org/1999/xlink" x="0px" y="0px"
	 viewBox="0 0 490.557 490.557" style="enable-background:new 0 0 490.557 490.557;" xml:space="preserve">
<g>
	<g>
		<path d="M75.759,218.949h-16v-80h-16v80h-16c-4.424,0-8,3.576-8,8v168c0,4.424,3.576,8,8,8h16v32h16v-32h16c4.424,0,8-3.576,8-8
			v-168C83.759,222.525,80.183,218.949,75.759,218.949z M67.759,386.949h-32v-152h32V386.949z"/>
	</g>
</g>
<g>
	<g>
		<path d="M171.759,146.949h-16v-72h-16v72h-16c-4.424,0-8,3.576-8,8v168c0,4.424,3.576,8,8,8h48c4.424,0,8-3.576,8-8v-168
			C179.759,150.525,176.183,146.949,171.759,146.949z M163.759,314.949h-32v-152h8h16h8V314.949z"/>
	</g>
</g>
<g>
	<g>
		<path d="M363.759,98.949h-16v-40h-16v40h-16c-4.424,0-8,3.576-8,8v168c0,4.424,3.576,8,8,8h16v48h16v-48h16c4.424,0,8-3.576,8-8
			v-168C371.759,102.525,368.183,98.949,363.759,98.949z M355.759,266.949h-32v-152h32V266.949z"/>
	</g>
</g>
<g>
	<g>
		<path d="M267.759,42.949h-16v-16h-16v16h-16c-4.424,0-8,3.576-8,8v112c0,4.424,3.576,8,8,8h16v24h16v-24h16c4.424,0,8-3.576,8-8
			v-112C275.759,46.525,272.183,42.949,267.759,42.949z M259.759,154.949h-32v-96h32V154.949z"/>
	</g>
</g>
<g>
	<g>
		<path d="M482.063,319.181c-4.496,2.552-9.304,4.976-14.304,7.304v-67.536c0-4.424-3.576-8-8-8h-48c-4.424,0-8,3.576-8,8v91.568
			c-19.496,4.984-38.568,4.216-61.68-2.4c-49.128-14.072-91.376-17.288-137.896,12.808c-29.504,19.088-53.088,45.904-74.184,72.048
			c-1.72,2.128-3.424,4.296-5.144,6.472c-14.936,18.944-29.024,36.784-53.4,34.976c-22.472-1.712-43.056-17.544-60.224-32.808
			L0.607,453.565c19.168,17.04,42.432,34.736,69.632,36.808c1.656,0.128,3.264,0.184,4.84,0.184
			c29.832,0,47.056-21.832,62.336-41.208c1.68-2.128,3.352-4.24,5.032-6.328c23.416-29.016,44.352-51.8,70.424-68.656
			c41.584-26.904,78.584-24.096,124.808-10.864c24.184,6.936,45.192,8.032,66.088,3.432v20.016c0,4.424,3.576,8,8,8h48
			c4.424,0,8-3.576,8-8v-43.032c7.736-3.376,15.296-6.904,22.184-10.816L482.063,319.181z M451.759,378.949h-32v-16.584
			c0.072-0.024,0.144-0.04,0.208-0.064l4.8-1.72c8.696-3.128,17.864-6.488,26.992-10.04V378.949z M451.759,333.397
			c-10.688,4.312-21.672,8.272-32,11.976v-78.424h32V333.397z"/>
	</g>
</g>
<g>
	<g>
		<path d="M463.887,111.013c-9.096-2.048-18.496-4.16-26.832-7.808c-16.288-7.128-29.184-20-42.84-33.624
			c-4-4-8-7.992-12.088-11.832c-25.136-23.64-52.408-40.328-81.064-49.592c-32.32-10.464-66.304-10.872-95.704-1.16
			c-22.768,7.512-42.608,20.736-61.8,33.52l-39.888,26.616c-16.008,10.672-31.712,20.104-47.48,18.256
			c-16.072-1.872-29.48-15.32-41.568-29.576L2.415,66.181c14.216,16.752,30.344,32.592,51.912,35.112
			c21.088,2.456,39.616-8.44,58.208-20.832l39.888-26.616c18.296-12.192,37.224-24.808,57.936-31.648
			c26.184-8.648,56.648-8.224,85.768,1.184c26.384,8.536,51.624,24.024,75.032,46.032c3.96,3.736,7.84,7.608,11.736,11.496
			c14.104,14.072,28.696,28.624,47.736,36.952c9.752,4.264,19.912,6.544,29.744,8.76l18.384,4.136l3.504-15.608L463.887,111.013z"/>
	</g>
</g>
<g>
</g>
<g>
</g>
<g>
</g>
<g>
</g>
<g>
</g>
<g>
</g>
<g>
</g>
<g>
</g>
<g>
</g>
<g>
</g>
<g>
</g>
<g>
</g>
<g>
</g>
<g>
</g>
<g>
</g>
</svg>
