<?xml version="1.0" encoding="iso-8859-1"?>
<!-- Generator: Adobe Illustrator 19.0.0, SVG Export Plug-In . SVG Version: 6.00 Build 0)  -->
<svg version="1.1" id="Capa_1" xmlns="http://www.w3.org/2000/svg" xmlns:xlink="http://www.w3.org/1999/xlink" x="0px" y="0px"
	 viewBox="0 0 480 480" style="enable-background:new 0 0 480 480;" xml:space="preserve">
<g>
	<g>
		<path d="M296,320h-32v-24c0-4.416-3.576-8-8-8h-32v-24V46.528c9.288-3.312,16-12.112,16-22.528c0-13.232-10.768-24-24-24H24
			C10.768,0,0,10.768,0,24c0,10.416,6.712,19.216,16,22.528V320H8c-4.424,0-8,3.584-8,8v112c0,22.056,17.944,40,40,40h224
			c22.056,0,40-17.944,40-40V328C304,323.584,300.424,320,296,320z M248,304v16h-56v-48h-16v48h-64v-48H96v48H80v-56
			c0-13.232,10.768-24,24-24h80c13.232,0,24,10.768,24,24v32c0,4.416,3.576,8,8,8H248z M144,144c-26.472,0-48,21.528-48,48
			c0,12.304,4.688,23.496,12.32,32H104c-22.056,0-40,17.944-40,40v56H32V48h176v184.208c-6.704-5.08-14.96-8.208-24-8.208h-4.32
			c7.632-8.504,12.32-19.696,12.32-32C192,165.528,170.472,144,144,144z M176,192c0,17.648-14.352,32-32,32s-32-14.352-32-32
			s14.352-32,32-32S176,174.352,176,192z M24,16h192c4.416,0,8,3.592,8,8s-3.584,8-8,8H24c-4.416,0-8-3.592-8-8S19.584,16,24,16z
			 M288,440c0,13.232-10.768,24-24,24H40c-13.232,0-24-10.768-24-24V336h56h32h184V440z"/>
	</g>
</g>
<g>
	<g>
		<rect x="136" y="256" width="16" height="16"/>
	</g>
</g>
<g>
	<g>
		<rect x="136" y="288" width="16" height="16"/>
	</g>
</g>
<g>
	<g>
		<path d="M440,272h-4.32c7.632-8.504,12.32-19.696,12.32-32c0-26.472-21.528-48-48-48s-48,21.528-48,48
			c0,12.304,4.688,23.496,12.32,32H360c-22.056,0-40,17.944-40,40v56c0,4.416,3.576,8,8,8h24v96c0,4.416,3.576,8,8,8h40h40
			c4.424,0,8-3.584,8-8v-96h24c4.424,0,8-3.584,8-8v-56C480,289.944,462.056,272,440,272z M400,208c17.648,0,32,14.352,32,32
			s-14.352,32-32,32s-32-14.352-32-32S382.352,208,400,208z M404.184,288L400,298.464L395.816,288H404.184z M464,360h-16v-48h-16
			v152h-24v-88h-16v88h-24V312h-16v48h-16v-48c0-13.232,10.768-24,24-24h18.584l13.992,34.976c1.216,3.032,4.152,5.024,7.424,5.024
			c3.272,0,6.208-1.992,7.432-5.024L421.416,288H440c13.232,0,24,10.768,24,24V360z"/>
	</g>
</g>
<g>
	<g>
		<rect x="48" y="64" width="144" height="16"/>
	</g>
</g>
<g>
	<g>
		<rect x="48" y="96" width="144" height="16"/>
	</g>
</g>
<g>
	<g>
		<path d="M408,0h-96c-22.056,0-40,17.944-40,40v84.688l-29.656,29.656c-2.288,2.288-2.976,5.728-1.736,8.72
			c1.232,2.984,4.16,4.936,7.392,4.936h160c22.056,0,40-17.944,40-40V40C448,17.944,430.056,0,408,0z M432,128
			c0,13.232-10.768,24-24,24H267.312l18.344-18.344C287.16,132.16,288,130.12,288,128V40c0-13.232,10.768-24,24-24h96
			c13.232,0,24,10.768,24,24V128z"/>
	</g>
</g>
<g>
	<g>
		<path d="M397.656,42.344c-3.128-3.128-8.184-3.128-11.312,0L376,52.688l-10.344-10.344c-3.128-3.128-8.184-3.128-11.312,0
			L344,52.688l-10.344-10.344c-3.128-3.128-8.184-3.128-11.312,0l-16,16l11.312,11.312L328,59.312l10.344,10.344
			c3.128,3.128,8.184,3.128,11.312,0L360,59.312l10.344,10.344C371.904,71.216,373.952,72,376,72c2.048,0,4.096-0.784,5.656-2.344
			L392,59.312l10.344,10.344l11.312-11.312L397.656,42.344z"/>
	</g>
</g>
<g>
	<g>
		<path d="M397.656,90.344c-3.128-3.128-8.184-3.128-11.312,0L376,100.688l-10.344-10.344c-3.128-3.128-8.184-3.128-11.312,0
			L344,100.688l-10.344-10.344c-3.128-3.128-8.184-3.128-11.312,0l-16,16l11.312,11.312L328,107.312l10.344,10.344
			c3.128,3.128,8.184,3.128,11.312,0L360,107.312l10.344,10.344c1.56,1.56,3.608,2.344,5.656,2.344c2.048,0,4.096-0.784,5.656-2.344
			L392,107.312l10.344,10.344l11.312-11.312L397.656,90.344z"/>
	</g>
</g>
<g>
</g>
<g>
</g>
<g>
</g>
<g>
</g>
<g>
</g>
<g>
</g>
<g>
</g>
<g>
</g>
<g>
</g>
<g>
</g>
<g>
</g>
<g>
</g>
<g>
</g>
<g>
</g>
<g>
</g>
</svg>
