<?xml version="1.0" encoding="iso-8859-1"?>
<!-- Generator: Adobe Illustrator 19.0.0, SVG Export Plug-In . SVG Version: 6.00 Build 0)  -->
<svg version="1.1" id="Capa_1" xmlns="http://www.w3.org/2000/svg" xmlns:xlink="http://www.w3.org/1999/xlink" x="0px" y="0px"
	 viewBox="0 0 480 480" style="enable-background:new 0 0 480 480;" xml:space="preserve">
<g>
	<g>
		<path d="M429.695,381.608c0.656-0.664,1.136-1.432,1.512-2.248c0.112-0.24,0.176-0.496,0.272-0.752
			c0.24-0.688,0.384-1.392,0.432-2.128c0-0.168,0.088-0.312,0.088-0.48V8c0-4.424-3.576-8-8-8h-320c-30.872,0-56,25.128-56,56v368
			c0,30.872,25.128,56,56,56h320c3.232,0,6.16-1.944,7.392-4.936c1.24-2.992,0.552-6.432-1.736-8.72
			c-11.312-11.312-17.536-26.352-17.536-42.344s6.224-31.024,17.528-42.336C429.663,381.648,429.671,381.624,429.695,381.608z
			 M407.487,464H103.999c-22.056,0-40-17.944-40-40c0-22.056,17.944-40,40-40h303.488c-7.408,11.888-11.368,25.64-11.368,40
			S400.079,452.112,407.487,464z M415.999,368h-312c-1.944,0-3.864,0.104-5.752,0.296c-0.736,0.072-1.44,0.232-2.168,0.328
			c-1.144,0.16-2.296,0.296-3.416,0.528c-0.864,0.176-1.696,0.44-2.544,0.656c-0.952,0.24-1.912,0.448-2.84,0.744
			c-0.912,0.288-1.784,0.648-2.672,0.976c-0.832,0.312-1.68,0.584-2.488,0.928c-0.904,0.384-1.776,0.848-2.656,1.28
			c-0.752,0.368-1.528,0.704-2.256,1.104c-0.872,0.48-1.696,1.024-2.536,1.544c-0.696,0.432-1.416,0.832-2.096,1.296
			c-0.816,0.552-1.584,1.176-2.36,1.768c-0.656,0.496-1.328,0.968-1.96,1.496c-0.744,0.616-1.44,1.296-2.144,1.952
			c-0.616,0.568-1.256,1.112-1.84,1.712c-0.104,0.088-0.192,0.16-0.272,0.232V56c0-22.056,17.944-40,40-40h312V368z"/>
	</g>
</g>
<g>
	<g>
		<path d="M167.999,400h-48c-4.424,0-8,3.576-8,8v40c0,2.952,1.624,5.664,4.224,7.056c2.592,1.392,5.768,1.232,8.208-0.4
			l19.568-13.04l19.56,13.04c1.336,0.888,2.888,1.344,4.44,1.344c1.296,0,2.592-0.312,3.776-0.944
			c2.6-1.392,4.224-4.104,4.224-7.056v-40C175.999,403.576,172.423,400,167.999,400z M159.999,433.056l-11.56-7.712
			c-1.344-0.896-2.896-1.344-4.44-1.344s-3.096,0.448-4.44,1.344l-11.56,7.712V416h32V433.056z"/>
	</g>
</g>
<g>
	<g>
		<rect x="191.999" y="400" width="56" height="16"/>
	</g>
</g>
<g>
	<g>
		<rect x="223.999" y="432" width="72" height="16"/>
	</g>
</g>
<g>
	<g>
		<rect x="263.999" y="400" width="16" height="16"/>
	</g>
</g>
<g>
	<g>
		<rect x="295.999" y="400" width="16" height="16"/>
	</g>
</g>
<g>
	<g>
		<rect x="327.999" y="400" width="16" height="16"/>
	</g>
</g>
<g>
	<g>
		<rect x="359.999" y="400" width="16" height="16"/>
	</g>
</g>
<g>
	<g>
		<rect x="311.999" y="432" width="64" height="16"/>
	</g>
</g>
<g>
	<g>
		<path d="M215.999,96h-80c-4.424,0-8,3.576-8,8v24c0,26.472,21.528,48,48,48s48-21.528,48-48v-24
			C223.999,99.576,220.423,96,215.999,96z M207.999,128c0,17.648-14.352,32-32,32s-32-14.352-32-32v-16h64V128z"/>
	</g>
</g>
<g>
	<g>
		<path d="M343.999,96h-80c-4.424,0-8,3.576-8,8v24c0,26.472,21.528,48,48,48s48-21.528,48-48v-24
			C351.999,99.576,348.423,96,343.999,96z M335.999,128c0,17.648-14.352,32-32,32s-32-14.352-32-32v-16h64V128z"/>
	</g>
</g>
<g>
	<g>
		<path d="M375.999,64H261.743c-5,0-9.992,1.176-14.456,3.408c-4.56,2.28-10.016,2.28-14.576,0
			C228.247,65.176,223.255,64,218.255,64H103.999c-13.232,0-24,10.768-24,24c0,10.432,6.688,19.328,16,22.632v15.104
			c0,36.184,22.208,67.672,55.264,78.344c33.36,10.76,69.032-1.208,88.84-29.168c15.008,20.16,38.256,32.64,62.432,33.072
			c0.496,0.008,0.984,0.016,1.488,0.016c21.104-0.008,40.944-8.112,56.032-22.92c15.448-15.168,23.944-35.44,23.944-57.08v-17.368
			c9.312-3.304,16-12.2,16-22.632C399.999,74.768,389.231,64,375.999,64z M375.999,96c-4.424,0-8,3.576-8,8v24
			c0,17.312-6.808,33.528-19.16,45.664c-12.36,12.136-28.832,18.6-46.024,18.32c-21.384-0.384-41.952-12.76-53.68-32.304l-2.28-3.8
			c-1.44-2.408-4.048-3.88-6.856-3.88c-2.816,0-5.416,1.48-6.856,3.88l-3.424,5.704c-15.104,25.16-45.32,36.352-73.544,27.256
			c-26.008-8.384-44.176-34.344-44.176-63.104V104c0-4.424-3.576-8-8-8c-4.416,0-8-3.584-8-8s3.584-8,8-8h114.256
			c2.52,0,5.048,0.592,7.296,1.72c9.048,4.512,19.84,4.512,28.888,0c2.256-1.128,4.776-1.72,7.304-1.72h114.256c4.416,0,8,3.584,8,8
			S380.415,96,375.999,96z"/>
	</g>
</g>
<g>
	<g>
		<path d="M367.999,248h-16h-208c-0.128,0-0.232,0.064-0.352,0.072c-0.896,0.04-1.784,0.192-2.64,0.528
			c-0.048,0.024-0.104,0.024-0.152,0.048c0,0,0,0-0.008,0l-56,24c-2.944,1.256-4.848,4.152-4.848,7.352s1.904,6.096,4.848,7.352
			l56,24c0,0,0,0,0.008,0c0.968,0.416,2.024,0.648,3.144,0.648h208h16c17.648,0,32-14.352,32-32S385.647,248,367.999,248z
			 M135.999,291.872L108.311,280l27.688-11.864V291.872z M343.999,296h-192v-32h192V296z M367.999,296h-8v-32h8
			c8.824,0,16,7.176,16,16C383.999,288.824,376.823,296,367.999,296z"/>
	</g>
</g>
<g>
	<g>
		<rect x="191.999" y="432" width="16" height="16"/>
	</g>
</g>
<g>
</g>
<g>
</g>
<g>
</g>
<g>
</g>
<g>
</g>
<g>
</g>
<g>
</g>
<g>
</g>
<g>
</g>
<g>
</g>
<g>
</g>
<g>
</g>
<g>
</g>
<g>
</g>
<g>
</g>
</svg>
