<?xml version="1.0" encoding="iso-8859-1"?>
<!-- Generator: Adobe Illustrator 19.0.0, SVG Export Plug-In . SVG Version: 6.00 Build 0)  -->
<svg version="1.1" id="Capa_1" xmlns="http://www.w3.org/2000/svg" xmlns:xlink="http://www.w3.org/1999/xlink" x="0px" y="0px"
	 viewBox="0 0 488 488" style="enable-background:new 0 0 488 488;" xml:space="preserve">
<g>
	<g>
		<path d="M348,320c-35.288,0-64,28.712-64,64c0,35.288,28.712,64,64,64c35.288,0,64-28.712,64-64C412,348.712,383.288,320,348,320z
			 M348,432c-26.472,0-48-21.528-48-48s21.528-48,48-48s48,21.528,48,48S374.472,432,348,432z"/>
	</g>
</g>
<g>
	<g>
		<path d="M348,360c-13.232,0-24,10.768-24,24s10.768,24,24,24s24-10.768,24-24S361.232,360,348,360z M348,392c-4.416,0-8-3.592-8-8
			c0-4.408,3.584-8,8-8c4.416,0,8,3.592,8,8C356,388.408,352.416,392,348,392z"/>
	</g>
</g>
<g>
	<g>
		<path d="M444,0H44C21.944,0,4,17.944,4,40v288v112c0,22.056,17.944,40,40,40h264v-0.024c12.32,5.152,25.832,8.024,40,8.024
			c14.168,0,27.68-2.872,40-8.024V480h56c22.056,0,40-17.944,40-40V336v-8V40C484,17.944,466.056,0,444,0z M44,464
			c-13.232,0-24-10.768-24-24V328c0-13.232,10.768-24,24-24h237.64C258.664,323.088,244,351.864,244,384s14.664,60.912,37.64,80H44z
			 M348,472c-48.52,0-88-39.48-88-88c0-48.52,39.48-88,88-88c48.52,0,88,39.48,88,88C436,432.52,396.52,472,348,472z M468,336v104
			c0,13.232-10.768,24-24,24h-29.64c22.976-19.088,37.64-47.864,37.64-80s-14.664-60.912-37.64-80H444c13.232,0,24,10.768,24,24V336
			z M468,296.208c-6.704-5.08-14.96-8.208-24-8.208h-56v0.024c-12.32-5.152-25.832-8.024-40-8.024c-14.168,0-27.68,2.872-40,8.024
			V288H44c-9.04,0-17.296,3.128-24,8.208V160h448V296.208z M468,144H20V40c0-13.232,10.768-24,24-24h400c13.232,0,24,10.768,24,24
			V144z"/>
	</g>
</g>
<g>
	<g>
		<path d="M204,352c-13.232,0-24,10.768-24,24v16c0,13.232,10.768,24,24,24s24-10.768,24-24v-16C228,362.768,217.232,352,204,352z
			 M212,392c0,4.408-3.584,8-8,8s-8-3.592-8-8v-16c0-4.408,3.584-8,8-8s8,3.592,8,8V392z"/>
	</g>
</g>
<g>
	<g>
		<rect x="132" y="424" width="32" height="16"/>
	</g>
</g>
<g>
	<g>
		<rect x="132" y="392" width="32" height="16"/>
	</g>
</g>
<g>
	<g>
		<rect x="132" y="360" width="32" height="16"/>
	</g>
</g>
<g>
	<g>
		<rect x="132" y="328" width="32" height="16"/>
	</g>
</g>
<g>
	<g>
		<rect x="84" y="424" width="32" height="16"/>
	</g>
</g>
<g>
	<g>
		<rect x="84" y="392" width="32" height="16"/>
	</g>
</g>
<g>
	<g>
		<rect x="84" y="360" width="32" height="16"/>
	</g>
</g>
<g>
	<g>
		<rect x="84" y="328" width="32" height="16"/>
	</g>
</g>
<g>
	<g>
		<rect x="36" y="424" width="32" height="16"/>
	</g>
</g>
<g>
	<g>
		<rect x="36" y="392" width="32" height="16"/>
	</g>
</g>
<g>
	<g>
		<rect x="36" y="360" width="32" height="16"/>
	</g>
</g>
<g>
	<g>
		<rect x="36" y="328" width="32" height="16"/>
	</g>
</g>
<g>
	<g>
		<path d="M321.656,50.344l-16-16l-11.312,11.312L304.688,56l-10.344,10.344l11.312,11.312l16-16
			C324.784,58.528,324.784,53.472,321.656,50.344z"/>
	</g>
</g>
<g>
	<g>
		<path d="M254.344,98.344L244,108.688l-10.344-10.344l-11.312,11.312l16,16c1.56,1.56,3.608,2.344,5.656,2.344
			c2.048,0,4.096-0.784,5.656-2.344l16-16L254.344,98.344z"/>
	</g>
</g>
<g>
	<g>
		<path d="M193.656,45.656l-11.312-11.312l-16,16c-3.128,3.128-3.128,8.184,0,11.312l16,16l11.312-11.312L183.312,56L193.656,45.656
			z"/>
	</g>
</g>
<g>
	<g>
		<path d="M244,32c-13.232,0-24,10.768-24,24s10.768,24,24,24s24-10.768,24-24S257.232,32,244,32z M244,64c-4.416,0-8-3.592-8-8
			s3.584-8,8-8s8,3.592,8,8S248.416,64,244,64z"/>
	</g>
</g>
<g>
	<g>
		<rect x="348" y="48" width="16" height="16"/>
	</g>
</g>
<g>
	<g>
		<rect x="268" y="176" width="16" height="16"/>
	</g>
</g>
<g>
	<g>
		<rect x="236" y="176" width="16" height="16"/>
	</g>
</g>
<g>
	<g>
		<rect x="204" y="176" width="16" height="16"/>
	</g>
</g>
<g>
</g>
<g>
</g>
<g>
</g>
<g>
</g>
<g>
</g>
<g>
</g>
<g>
</g>
<g>
</g>
<g>
</g>
<g>
</g>
<g>
</g>
<g>
</g>
<g>
</g>
<g>
</g>
<g>
</g>
</svg>
