<?xml version="1.0" encoding="iso-8859-1"?>
<!-- Generator: Adobe Illustrator 19.0.0, SVG Export Plug-In . SVG Version: 6.00 Build 0)  -->
<svg version="1.1" id="Capa_1" xmlns="http://www.w3.org/2000/svg" xmlns:xlink="http://www.w3.org/1999/xlink" x="0px" y="0px"
	 viewBox="0 0 480.003 480.003" style="enable-background:new 0 0 480.003 480.003;" xml:space="preserve">
<g>
	<g>
		<path d="M280.001,96.003c-27.728,0-48,31.568-48,48c0,3.232,1.944,6.152,4.936,7.392c2.992,1.232,6.432,0.552,8.72-1.728
			c7.2-7.2,15.24-13.664,34.344-13.664c19.08,0,27.736,7.048,34.344,13.664c1.528,1.52,3.576,2.336,5.656,2.336
			c1.032,0,2.072-0.2,3.064-0.608c2.992-1.24,4.936-4.16,4.936-7.392C328.001,127.571,307.729,96.003,280.001,96.003z
			 M280.001,120.003c-8.2,0-15.024,1.032-20.824,2.768c5.632-6.016,12.928-10.768,20.824-10.768c7.936,0,15.272,4.8,20.904,10.856
			C295.065,121.083,288.201,120.003,280.001,120.003z"/>
	</g>
</g>
<g>
	<g>
		<path d="M392.001,96.003c-27.728,0-48,31.568-48,48c0,3.232,1.944,6.152,4.936,7.392c2.992,1.232,6.424,0.552,8.72-1.728
			c7.2-7.2,15.24-13.664,34.344-13.664c19.08,0,27.736,7.048,34.344,13.664c1.528,1.52,3.576,2.336,5.656,2.336
			c1.032,0,2.072-0.2,3.064-0.608c2.992-1.24,4.936-4.16,4.936-7.392C440.001,127.571,419.729,96.003,392.001,96.003z
			 M392.001,120.003c-8.2,0-15.024,1.032-20.824,2.768c5.632-6.016,12.928-10.768,20.824-10.768c7.936,0,15.272,4.8,20.904,10.856
			C407.065,121.083,400.201,120.003,392.001,120.003z"/>
	</g>
</g>
<g>
	<g>
		<path d="M387.065,248.611c-2.992-1.232-6.432-0.56-8.72,1.736c-8.528,8.528-18.832,16.856-42.344,16.856
			c-22.4,0-33.584-8.104-42.344-16.856c-2.288-2.296-5.728-2.96-8.72-1.736c-2.992,1.24-4.936,4.16-4.936,7.392
			c0,19.168,23.648,56,56,56s56-36.832,56-56C392.001,252.771,390.057,249.851,387.065,248.611z M336.001,296.003
			c-12.16,0-22.96-8.568-30.272-18.176c8,3.264,17.816,5.376,30.272,5.376c12.472,0,22.216-2.024,30.168-5.248
			C358.865,287.515,348.105,296.003,336.001,296.003z"/>
	</g>
</g>
<g>
	<g>
		<path d="M476.681,1.515c-2.088-1.504-4.76-1.92-7.2-1.104c-86.08,28.592-180.872,28.592-266.952,0
			c-2.456-0.816-5.136-0.4-7.2,1.104c-2.096,1.504-3.328,3.92-3.328,6.488v138.576c-18.024-9.248-38.384-14.576-60-14.576
			c-72.784,0-132,59.216-132,132v80c0,4.416,3.576,8,8,8h32v96c0,4.416,3.576,8,8,8h104v24h16v-32c0-4.416-3.576-8-8-8h-104v-96
			c0-4.416-3.576-8-8-8h-32v-72c0-63.96,52.04-116,116-116c23.824,0,45.976,7.232,64.416,19.6c0.456,0.304,0.888,0.64,1.344,0.952
			c2.44,1.688,4.808,3.456,7.112,5.32c0.448,0.36,0.904,0.712,1.344,1.08c2.632,2.192,5.168,4.488,7.6,6.904
			c0.168,0.168,0.32,0.336,0.488,0.504c2.472,2.496,4.848,5.088,7.088,7.8c0.04,0.048,0.08,0.096,0.12,0.144
			c2.28,2.768,4.424,5.648,6.448,8.616c0.152,0.224,0.304,0.456,0.456,0.688c3.896,5.816,7.264,12.008,10.072,18.496
			c0.224,0.52,0.448,1.04,0.664,1.56c1.304,3.128,2.488,6.32,3.512,9.584c0.12,0.376,0.208,0.752,0.32,1.128
			c0.896,2.968,1.664,5.984,2.328,9.04c0.136,0.632,0.296,1.264,0.424,1.904c0.648,3.264,1.152,6.576,1.52,9.92
			c0.08,0.72,0.136,1.448,0.2,2.168c0.328,3.496,0.544,7.016,0.544,10.592v51.84v164.16h16V338.739
			c19.464,22.856,42.08,42.992,67.568,59.928c1.344,0.888,2.888,1.336,4.432,1.336c1.536,0,3.088-0.448,4.432-1.336
			c87.392-58.064,139.568-151.76,139.568-250.632V8.003C480.001,5.435,478.769,3.019,476.681,1.515z M464.001,148.035
			c0,91.824-47.752,179.032-128,234.312c-27.88-19.2-52.072-42.432-72-69.136v-49.208c0-4.08-0.248-8.112-0.616-12.128
			c-0.064-0.744-0.12-1.48-0.2-2.224c-0.416-3.8-0.992-7.56-1.728-11.272c-0.152-0.76-0.32-1.504-0.48-2.256
			c-0.824-3.824-1.768-7.616-2.92-11.328c-1.192-3.832-2.6-7.576-4.128-11.264c-0.192-0.456-0.368-0.92-0.568-1.376
			c-1.56-3.648-3.288-7.224-5.168-10.712c-0.136-0.248-0.28-0.496-0.416-0.744c-3.928-7.168-8.52-13.968-13.744-20.32
			c-0.144-0.168-0.28-0.344-0.424-0.512c-2.624-3.16-5.384-6.216-8.312-9.136c-0.016-0.016-0.024-0.024-0.04-0.04
			c-2.8-2.792-5.752-5.464-8.816-8.016c-0.28-0.232-0.544-0.472-0.832-0.704c-2.416-1.992-4.888-3.92-7.464-5.744
			c-0.096-2.728-0.144-5.456-0.144-8.192V18.939c82.968,25.208,173.032,25.208,256,0V148.035z"/>
	</g>
</g>
<g>
	<g>
		<path d="M207.985,217.011c0.008-0.336,0.016-0.672,0.016-1.008c0-17.648-14.352-32-32-32c-3.888,0-7.712,0.72-11.296,2.096
			c-5.2-10.736-16.192-18.096-28.704-18.096c-12.512,0-23.504,7.36-28.704,18.096c-3.584-1.376-7.408-2.096-11.296-2.096
			c-17.648,0-32,14.352-32,32c0,0.336,0.008,0.672,0.016,1.008c-13.8,3.552-24.016,16.104-24.016,30.992c0,17.648,14.352,32,32,32
			h56v24c0,3.032,1.712,5.8,4.424,7.16l59.576,29.784v139.056h16V278.867c13.768-3.576,24-16,24-30.864
			C232.001,233.115,221.785,220.563,207.985,217.011z M192.001,323.059l-48-24v-19.056h48V323.059z M200.001,264.003h-128
			c-8.824,0-16-7.176-16-16c0-8.824,7.168-16,15.768-16h0.008c0.2,0.024,1.048,0.12,1.248,0.136c2.68,0.24,5.288-1.032,6.896-3.192
			c1.616-2.16,2.032-4.992,1.112-7.52c-0.696-1.92-1.032-3.688-1.032-5.424c0-8.824,7.176-16,16-16c3.936,0,7.76,1.512,10.76,4.264
			c2.28,2.08,5.528,2.672,8.376,1.528c2.848-1.144,4.808-3.816,5.016-6.88c0.568-8.36,7.536-14.912,15.848-14.912
			s15.28,6.552,15.848,14.912c0.208,3.064,2.168,5.736,5.016,6.88c2.848,1.136,6.096,0.544,8.376-1.528
			c3-2.752,6.824-4.264,10.76-4.264c8.824,0,16,7.176,16,16c0,1.736-0.336,3.504-1.032,5.416c-0.92,2.528-0.504,5.36,1.112,7.52
			c1.608,2.16,4.16,3.384,6.896,3.192c0.12-0.008,0.88-0.096,1.24-0.136c8.728,0.128,15.784,7.256,15.784,16.008
			C216.001,256.827,208.825,264.003,200.001,264.003z"/>
	</g>
</g>
<g>
	<g>
		<rect x="328.001" y="416.003" width="16" height="16"/>
	</g>
</g>
<g>
	<g>
		<rect x="328.001" y="448.003" width="16" height="16"/>
	</g>
</g>
<g>
	<g>
		<rect x="296.001" y="448.003" width="16" height="16"/>
	</g>
</g>
<g>
	<g>
		<rect x="360.001" y="448.003" width="16" height="16"/>
	</g>
</g>
<g>
	<g>
		<rect x="128.001" y="96.003" width="16" height="16"/>
	</g>
</g>
<g>
	<g>
		<rect x="128.001" y="64.003" width="16" height="16"/>
	</g>
</g>
<g>
	<g>
		<rect x="160.001" y="64.003" width="16" height="16"/>
	</g>
</g>
<g>
	<g>
		<rect x="96.001" y="64.003" width="16" height="16"/>
	</g>
</g>
<g>
</g>
<g>
</g>
<g>
</g>
<g>
</g>
<g>
</g>
<g>
</g>
<g>
</g>
<g>
</g>
<g>
</g>
<g>
</g>
<g>
</g>
<g>
</g>
<g>
</g>
<g>
</g>
<g>
</g>
</svg>
