<?xml version="1.0" encoding="iso-8859-1"?>
<!-- Generator: Adobe Illustrator 19.0.0, SVG Export Plug-In . SVG Version: 6.00 Build 0)  -->
<svg version="1.1" id="Capa_1" xmlns="http://www.w3.org/2000/svg" xmlns:xlink="http://www.w3.org/1999/xlink" x="0px" y="0px"
	 viewBox="0 0 477.544 477.544" style="enable-background:new 0 0 477.544 477.544;" xml:space="preserve">
<g>
	<g>
		<path d="M421.444,329.568c-5.904-4.984-13.68-7.064-21.304-5.752l-158.648,27.592l-45.064-45.064
			c-1.496-1.504-3.536-2.344-5.656-2.344h-80c0-4.424-3.584-8-8-8h-32h-56v16h48v112h-48v16h56h32c4.416,0,8-3.576,8-8h22.112
			l85.528,42.768c3.696,1.848,7.704,2.776,11.696,2.776c4.552,0,9.096-1.192,13.168-3.576l174.512-101.8
			c8-4.672,12.976-13.32,12.976-22.584C430.764,341.848,427.372,334.552,421.444,329.568z M94.772,424h-16V312h16V424z
			 M409.74,358.344l-174.52,101.8c-2.984,1.736-6.584,1.84-9.656,0.312l-87.216-43.608c-1.104-0.56-2.336-0.848-3.576-0.848h-24v-96
			h76.688l63.032,63.032c2.72,2.728,4.28,6.488,4.28,10.344c0,8.064-6.56,14.624-14.632,14.624c-3.904,0-7.584-1.52-10.344-4.28
			l-41.368-41.376l-11.312,11.312l41.376,41.376c5.784,5.784,13.472,8.968,21.648,8.968c16.896,0,30.632-13.744,30.632-30.624
			c0-8.184-3.184-15.872-8.976-21.656l-6.472-6.48l147.56-25.664c2.952-0.504,5.976,0.296,8.272,2.232
			c2.296,1.936,3.616,4.768,3.616,7.768C414.772,353.168,412.844,356.528,409.74,358.344z"/>
	</g>
</g>
<g>
	<g>
		<path d="M403.436,28.968C385.708,10.288,362.1,0,336.964,0c-25,0-48.488,10.168-66.192,28.672C253.076,10.176,229.58,0,204.58,0
			c-25.136,0-48.744,10.288-66.48,28.968c-36.336,38.288-36.336,100.592,0,138.872l126.872,133.664c1.504,1.6,3.608,2.496,5.8,2.496
			c2.192,0,4.296-0.896,5.8-2.496L403.436,167.84C439.772,129.56,439.772,67.256,403.436,28.968z M391.836,156.824l-121.064,127.56
			L149.708,156.832c-30.576-32.216-30.576-84.632,0-116.848C164.388,24.512,183.876,16,204.58,16
			c20.704,0,40.192,8.512,54.872,23.984l5.512,5.816c3.024,3.184,8.584,3.184,11.608,0l5.512-5.816
			C296.772,24.512,316.26,16,336.964,16s40.192,8.512,54.872,23.984C422.412,72.2,422.412,124.616,391.836,156.824z"/>
	</g>
</g>
<g>
	<g>
		<rect x="110.772" y="200" width="16" height="16"/>
	</g>
</g>
<g>
	<g>
		<rect x="78.772" y="168" width="16" height="16"/>
	</g>
</g>
<g>
	<g>
		<rect x="78.772" y="200" width="16" height="16"/>
	</g>
</g>
<g>
	<g>
		<rect x="78.772" y="232" width="16" height="16"/>
	</g>
</g>
<g>
	<g>
		<rect x="414.772" y="200" width="16" height="16"/>
	</g>
</g>
<g>
	<g>
		<rect x="446.772" y="232" width="16" height="16"/>
	</g>
</g>
<g>
	<g>
		<rect x="446.772" y="200" width="16" height="16"/>
	</g>
</g>
<g>
	<g>
		<rect x="446.772" y="168" width="16" height="16"/>
	</g>
</g>
<g>
	<g>
		<path d="M364.956,130.92C363.252,128.84,322.564,80,270.772,80s-92.48,48.84-94.184,50.92c-2.424,2.952-2.424,7.2,0,10.16
			c1.704,2.08,42.392,50.92,94.184,50.92s92.48-48.84,94.184-50.92C367.38,138.128,367.38,133.88,364.956,130.92z M270.772,176
			c-35.112,0-65.888-28.224-77.208-40.008C204.86,124.2,235.556,96,270.772,96c35.112,0,65.888,28.224,77.208,40.008
			C336.684,147.8,305.988,176,270.772,176z"/>
	</g>
</g>
<g>
	<g>
		<path d="M270.772,104c-17.648,0-32,14.352-32,32s14.352,32,32,32s32-14.352,32-32S288.42,104,270.772,104z M270.772,152
			c-8.824,0-16-7.176-16-16c0-8.824,7.176-16,16-16c8.824,0,16,7.176,16,16C286.772,144.824,279.596,152,270.772,152z"/>
	</g>
</g>
<g>
</g>
<g>
</g>
<g>
</g>
<g>
</g>
<g>
</g>
<g>
</g>
<g>
</g>
<g>
</g>
<g>
</g>
<g>
</g>
<g>
</g>
<g>
</g>
<g>
</g>
<g>
</g>
<g>
</g>
</svg>
