<?xml version="1.0" encoding="iso-8859-1"?>
<!-- Generator: Adobe Illustrator 19.0.0, SVG Export Plug-In . SVG Version: 6.00 Build 0)  -->
<svg version="1.1" id="Capa_1" xmlns="http://www.w3.org/2000/svg" xmlns:xlink="http://www.w3.org/1999/xlink" x="0px" y="0px"
	 viewBox="0 0 486.413 486.413" style="enable-background:new 0 0 486.413 486.413;" xml:space="preserve">
<g>
	<g>
		<path d="M479.576,128.145c-12.76-44.136-41.928-80.664-82.16-102.856C357.2,3.097,310.752-2.119,266.592,10.649
			c-44.136,12.752-80.672,41.928-102.864,82.16l-1.928,3.504c-2.136,3.864-0.728,8.728,3.144,10.864l96.768,53.384
			c-0.904,1.32-1.736,2.688-2.432,4.136c-3.584-1.368-7.4-2.088-11.28-2.088c-14.888,0-27.44,10.216-30.992,24.016
			c-17.888-0.48-33.008,14-33.008,31.984c0,0.336,0.008,0.672,0.016,1.008c-13.8,3.552-24.016,16.104-24.016,30.992h-32
			c-4.424,0-8,3.576-8,8v88c0,4.424,3.576,8,8,8h32v72c0,4.424,3.576,8,8,8h88h8v32h-56v16h64c4.424,0,8-3.576,8-8v-40h24v-16h-32
			h-16h-80v-16c26.472,0,48-21.528,48-48h-16c0,17.648-14.352,32-32,32v-40c0-4.424-3.576-8-8-8h-32v-72h33.472h237.064H448v216h16
			V260.673l0.936-1.696C487.128,218.745,492.328,172.281,479.576,128.145z M176,250.609c0-8.824,7.168-15.992,15.792-15.992h0.008
			c0.168,0.024,0.936,0.112,1.104,0.128c2.808,0.208,5.344-0.976,6.984-3.136c1.648-2.168,2.08-5.016,1.16-7.568
			c-0.712-1.928-1.048-3.696-1.048-5.432c0-8.824,7.176-16,16-16c1.736,0,3.504,0.336,5.432,1.04c2.544,0.92,5.408,0.496,7.568-1.16
			c2.16-1.64,3.344-4.272,3.136-6.984c-0.016-0.16-0.112-0.728-0.136-0.896c0-8.824,7.176-16,16-16c3.936,0,7.76,1.512,10.76,4.256
			c2.256,2.088,5.512,2.672,8.376,1.536c2.848-1.144,4.808-3.824,5.016-6.88c0.232-3.432,1.528-6.608,3.68-9.168l99.424,54.848
			c-0.096,0.28-0.184,0.56-0.288,0.84c-0.92,2.552-0.496,5.408,1.16,7.568c1.64,2.16,4.208,3.344,6.984,3.136
			c0.08-0.008,0.792-0.096,1.12-0.136c8.704,0.12,15.768,7.248,15.768,16H176z M416,250.609c0-1.76-0.168-3.48-0.44-5.168
			l9.368,5.168H416z M452.808,247.721l-64.92-35.816c-0.016-0.008-0.032-0.024-0.048-0.032l-109.184-60.232
			c-0.008-0.008-0.024-0.008-0.032-0.008L179.72,97.065c20.28-34.696,52.56-59.856,91.312-71.048
			c40.024-11.56,82.168-6.856,118.656,13.28c36.488,20.128,62.952,53.256,74.512,93.288
			C475.392,171.329,471.344,212.057,452.808,247.721z"/>
	</g>
</g>
<g>
	<g>
		<rect x="160" y="154.609" width="16" height="16"/>
	</g>
</g>
<g>
	<g>
		<rect x="128" y="122.609" width="16" height="16"/>
	</g>
</g>
<g>
	<g>
		<rect x="128" y="154.609" width="16" height="16"/>
	</g>
</g>
<g>
	<g>
		<rect x="128" y="186.609" width="16" height="16"/>
	</g>
</g>
<g>
	<g>
		<rect x="96" y="154.609" width="16" height="16"/>
	</g>
</g>
<g>
	<g>
		<rect x="64" y="122.609" width="16" height="16"/>
	</g>
</g>
<g>
	<g>
		<rect x="64" y="154.609" width="16" height="16"/>
	</g>
</g>
<g>
	<g>
		<rect x="64" y="186.609" width="16" height="16"/>
	</g>
</g>
<g>
	<g>
		<rect x="32" y="154.609" width="16" height="16"/>
	</g>
</g>
<g>
	<g>
		<rect y="122.609" width="16" height="16"/>
	</g>
</g>
<g>
	<g>
		<rect y="154.609" width="16" height="16"/>
	</g>
</g>
<g>
	<g>
		<rect y="186.609" width="16" height="16"/>
	</g>
</g>
<g>
</g>
<g>
</g>
<g>
</g>
<g>
</g>
<g>
</g>
<g>
</g>
<g>
</g>
<g>
</g>
<g>
</g>
<g>
</g>
<g>
</g>
<g>
</g>
<g>
</g>
<g>
</g>
<g>
</g>
</svg>
