<?xml version="1.0" encoding="iso-8859-1"?>
<!-- Generator: Adobe Illustrator 19.0.0, SVG Export Plug-In . SVG Version: 6.00 Build 0)  -->
<svg version="1.1" id="Capa_1" xmlns="http://www.w3.org/2000/svg" xmlns:xlink="http://www.w3.org/1999/xlink" x="0px" y="0px"
	 viewBox="0 0 480 480" style="enable-background:new 0 0 480 480;" xml:space="preserve">
<g>
	<g>
		<path d="M480,288h-64v-24c0-4.424-3.584-8-8-8H136c-4.416,0-8,3.576-8,8v208c0,4.424,3.584,8,8,8h272c4.416,0,8-3.576,8-8v-8h64
			v-16h-64V344c0-4.424-3.584-8-8-8h-16h-32c-19.32,0-35.48-13.768-39.192-32H480V288z M400,288h-88c-4.416,0-8,3.576-8,8
			c0,30.872,25.12,56,56,56h32h8v112H144V272h256V288z"/>
	</g>
</g>
<g>
	<g>
		<path d="M237.656,338.344l-32-32c-3.128-3.128-8.184-3.128-11.312,0l-32,32c-3.128,3.128-3.128,8.184,0,11.312l32,32
			c1.56,1.56,3.608,2.344,5.656,2.344c2.048,0,4.096-0.784,5.656-2.344l32-32C240.784,346.528,240.784,341.472,237.656,338.344z
			 M200,364.688L179.312,344L200,323.312L220.688,344L200,364.688z"/>
	</g>
</g>
<g>
	<g>
		<rect x="168" y="400" width="64" height="16"/>
	</g>
</g>
<g>
	<g>
		<rect x="168" y="432" width="64" height="16"/>
	</g>
</g>
<g>
	<g>
		<rect x="256" y="288" width="16" height="160"/>
	</g>
</g>
<g>
	<g>
		<rect x="288" y="368" width="32" height="16"/>
	</g>
</g>
<g>
	<g>
		<rect x="336" y="368" width="48" height="16"/>
	</g>
</g>
<g>
	<g>
		<rect x="288" y="400" width="64" height="16"/>
	</g>
</g>
<g>
	<g>
		<rect x="288" y="432" width="16" height="16"/>
	</g>
</g>
<g>
	<g>
		<rect x="320" y="432" width="16" height="16"/>
	</g>
</g>
<g>
	<g>
		<rect x="352" y="432" width="16" height="16"/>
	</g>
</g>
<g>
	<g>
		<path d="M344,0H72c-4.416,0-8,3.576-8,8v8H0v16h64v104c0,4.424,3.584,8,8,8h16h32c19.32,0,35.48,13.768,39.192,32H0v16h64v24
			c0,4.424,3.584,8,8,8h272c4.416,0,8-3.576,8-8V8C352,3.576,348.416,0,344,0z M336,208H80v-16h88c4.416,0,8-3.576,8-8
			c0-30.872-25.12-56-56-56H88h-8V16h256V208z"/>
	</g>
</g>
<g>
	<g>
		<rect x="248" y="64" width="64" height="16"/>
	</g>
</g>
<g>
	<g>
		<rect x="248" y="32" width="64" height="16"/>
	</g>
</g>
<g>
	<g>
		<rect x="208" y="32" width="16" height="160"/>
	</g>
</g>
<g>
	<g>
		<rect x="160" y="96" width="32" height="16"/>
	</g>
</g>
<g>
	<g>
		<rect x="96" y="96" width="48" height="16"/>
	</g>
</g>
<g>
	<g>
		<rect x="128" y="64" width="64" height="16"/>
	</g>
</g>
<g>
	<g>
		<rect x="176" y="32" width="16" height="16"/>
	</g>
</g>
<g>
	<g>
		<rect x="144" y="32" width="16" height="16"/>
	</g>
</g>
<g>
	<g>
		<rect x="112" y="32" width="16" height="16"/>
	</g>
</g>
<g>
	<g>
		<path d="M280,96c-22.056,0-40,17.944-40,40c0,22.056,17.944,40,40,40c22.056,0,40-17.944,40-40C320,113.944,302.056,96,280,96z
			 M280,160c-13.232,0-24-10.768-24-24s10.768-24,24-24s24,10.768,24,24S293.232,160,280,160z"/>
	</g>
</g>
<g>
	<g>
		<path d="M440.296,159.048l-14.824,5.992c1.912,4.736,3.664,9.6,5.216,14.48l15.248-4.84
			C444.272,169.424,442.368,164.168,440.296,159.048z"/>
	</g>
</g>
<g>
	<g>
		<path d="M425.488,129.304l-13.728,8.216c2.632,4.384,5.112,8.92,7.384,13.496l14.328-7.128
			C431.008,138.952,428.328,134.04,425.488,129.304z"/>
	</g>
</g>
<g>
	<g>
		<path d="M406.296,102.224l-12.304,10.232c3.256,3.912,6.408,8.016,9.36,12.192l13.064-9.248
			C413.224,110.896,409.816,106.464,406.296,102.224z"/>
	</g>
</g>
<g>
	<g>
		<path d="M383.224,78.384L372.6,90.36c3.832,3.4,7.576,6.976,11.12,10.632l11.496-11.128
			C391.392,85.912,387.36,82.048,383.224,78.384z"/>
	</g>
</g>
<g>
	<g>
		<path d="M450.344,190.704l-15.584,3.64c1.168,4.992,2.144,10.072,2.92,15.112l15.816-2.424
			C452.664,201.584,451.6,196.096,450.344,190.704z"/>
	</g>
</g>
<g>
	<g>
		<path d="M456,240c0-5.504-0.208-11.032-0.616-16.464l-15.952,1.2C439.808,229.776,440,234.904,440,240v0.128L456,240z"/>
	</g>
</g>
<g>
	<g>
		<path d="M439.408,255.512c-0.4,5.08-0.992,10.224-1.768,15.272l15.816,2.44c0.84-5.448,1.48-10.992,1.904-16.496L439.408,255.512z
			"/>
	</g>
</g>
<g>
	<g>
		<path d="M26.544,206.776c-0.84,5.448-1.48,11-1.896,16.504l15.952,1.216c0.392-5.096,0.984-10.232,1.76-15.28L26.544,206.776z"/>
	</g>
</g>
<g>
	<g>
		<path d="M49.32,300.48l-15.256,4.848c1.664,5.256,3.568,10.512,5.64,15.632l14.832-6C52.624,310.224,50.872,305.36,49.32,300.48z"
			/>
	</g>
</g>
<g>
	<g>
		<path d="M60.856,328.984l-14.328,7.128c2.464,4.936,5.144,9.848,7.984,14.584l13.728-8.216
			C65.608,338.096,63.128,333.56,60.856,328.984z"/>
	</g>
</g>
<g>
	<g>
		<path d="M42.312,270.544l-15.808,2.424c0.832,5.448,1.896,10.936,3.152,16.328l15.576-3.64
			C44.064,280.664,43.088,275.584,42.312,270.544z"/>
	</g>
</g>
<g>
	<g>
		<path d="M96.28,379.016l-11.488,11.12c3.824,3.952,7.856,7.816,11.992,11.48l10.616-11.968
			C103.568,386.248,99.824,382.672,96.28,379.016z"/>
	</g>
</g>
<g>
	<g>
		<path d="M40,240v-0.128L24,240c0,5.504,0.208,11.032,0.616,16.464l15.952-1.2C40.192,250.224,40,245.096,40,240z"/>
	</g>
</g>
<g>
	<g>
		<path d="M76.648,355.352L63.584,364.6c3.192,4.504,6.6,8.936,10.12,13.176l12.304-10.232
			C82.752,363.632,79.6,359.528,76.648,355.352z"/>
	</g>
</g>
<g>
</g>
<g>
</g>
<g>
</g>
<g>
</g>
<g>
</g>
<g>
</g>
<g>
</g>
<g>
</g>
<g>
</g>
<g>
</g>
<g>
</g>
<g>
</g>
<g>
</g>
<g>
</g>
<g>
</g>
</svg>
