<?xml version="1.0" encoding="iso-8859-1"?>
<!-- Generator: Adobe Illustrator 19.0.0, SVG Export Plug-In . SVG Version: 6.00 Build 0)  -->
<svg version="1.1" id="Capa_1" xmlns="http://www.w3.org/2000/svg" xmlns:xlink="http://www.w3.org/1999/xlink" x="0px" y="0px"
	 viewBox="0 0 480 480" style="enable-background:new 0 0 480 480;" xml:space="preserve">
<g>
	<g>
		<rect x="64" y="168" width="16" height="16"/>
	</g>
</g>
<g>
	<g>
		<path d="M160,144c-13.232,0-24,10.768-24,24s10.768,24,24,24s24-10.768,24-24S173.232,144,160,144z M160,176c-4.408,0-8-3.592-8-8
			s3.592-8,8-8s8,3.592,8,8S164.408,176,160,176z"/>
	</g>
</g>
<g>
	<g>
		<path d="M160,224c-13.232,0-24,10.768-24,24s10.768,24,24,24s24-10.768,24-24S173.232,224,160,224z M160,256c-4.408,0-8-3.592-8-8
			c0-4.408,3.592-8,8-8s8,3.592,8,8C168,252.408,164.408,256,160,256z"/>
	</g>
</g>
<g>
	<g>
		<path d="M160,304c-13.232,0-24,10.768-24,24s10.768,24,24,24s24-10.768,24-24S173.232,304,160,304z M160,336c-4.408,0-8-3.592-8-8
			c0-4.408,3.592-8,8-8s8,3.592,8,8C168,332.408,164.408,336,160,336z"/>
	</g>
</g>
<g>
	<g>
		<path d="M160,384c-13.232,0-24,10.768-24,24s10.768,24,24,24s24-10.768,24-24S173.232,384,160,384z M160,416c-4.408,0-8-3.592-8-8
			c0-4.408,3.592-8,8-8s8,3.592,8,8C168,412.408,164.408,416,160,416z"/>
	</g>
</g>
<g>
	<g>
		<rect x="208" y="160" width="200" height="16"/>
	</g>
</g>
<g>
	<g>
		<rect x="208" y="80" width="104" height="16"/>
	</g>
</g>
<g>
	<g>
		<rect x="184" y="112" width="152" height="16"/>
	</g>
</g>
<g>
	<g>
		<rect x="208" y="240" width="200" height="16"/>
	</g>
</g>
<g>
	<g>
		<rect x="208" y="320" width="200" height="16"/>
	</g>
</g>
<g>
	<g>
		<rect x="208" y="400" width="200" height="16"/>
	</g>
</g>
<g>
	<g>
		<path d="M440,0H168c-18.256,0-33.528,12.368-38.304,29.112C116.56,11.488,95.624,0,72,0C32.304,0,0,32.304,0,72
			c0,24.904,12.72,46.888,32,59.824V408c0,4.416,3.584,8,8,8v40c0,4.416,3.584,8,8,8h16v16h16v-16h16
			c0.064,0,0.112-0.032,0.176-0.032C103.48,473.64,114.968,480,128,480h280c19.568,0,35.832-14.144,39.264-32.736
			C465.856,443.832,480,427.568,480,408V40C480,17.944,462.056,0,440,0z M72,16c20.76,0,38.88,11.384,48.552,28.208
			c2.336,4.072,4.128,8.408,5.376,12.888c0.104,0.376,0.2,0.76,0.296,1.144c0.464,1.816,0.824,3.656,1.104,5.504
			c0.008,0.088,0.024,0.168,0.032,0.256H16.64C20.544,36.904,43.848,16,72,16z M88,440v8H56v-32h32V440z M96,400H48V139.8
			c7.52,2.672,15.576,4.2,24,4.2s16.48-1.528,24-4.2V400z M98.84,120.992c-0.2,0.112-0.336,0.288-0.528,0.416
			C90.464,125.6,81.512,128,72,128c-28.152,0-51.456-20.904-55.36-48h110.72c-0.024,0.176-0.056,0.352-0.08,0.536
			c-0.296,1.904-0.68,3.792-1.168,5.64c-0.088,0.344-0.168,0.696-0.264,1.04C121.8,101.384,112.216,113.648,98.84,120.992z M432,440
			c0,13.232-10.768,24-24,24H128c-13.232,0-24-10.768-24-24v-24c4.416,0,8-3.584,8-8V131.824c4.944-3.312,9.4-7.272,13.376-11.672
			c0.008-0.008,0.016-0.024,0.024-0.032c5.736-6.36,10.352-13.712,13.544-21.8c0.144-0.376,0.272-0.752,0.416-1.128
			c0.808-2.144,1.504-4.336,2.104-6.568c0.176-0.648,0.344-1.296,0.504-1.952c0.488-2.056,0.88-4.144,1.184-6.256
			c0.104-0.696,0.24-1.376,0.32-2.08C143.792,77.592,144,74.824,144,72c0-2.24-0.128-4.472-0.336-6.704
			c-0.088-0.968-0.24-1.904-0.368-2.856c-0.16-1.192-0.328-2.384-0.544-3.568c-0.224-1.2-0.496-2.376-0.776-3.552
			c-0.216-0.888-0.44-1.768-0.68-2.648c-0.36-1.296-0.752-2.568-1.184-3.832c-0.104-0.28-0.168-0.568-0.264-0.84H360v64
			c0,4.416,3.584,8,8,8h64V440z M376,104V59.312L420.688,104H376z M464,408c0,10.416-6.712,19.216-16,22.528V112
			c0-2.216-0.904-4.216-2.36-5.664l-71.984-71.984C372.208,32.896,370.208,32,368,32l-222.544,0.056
			C148.752,22.736,157.568,16,168,16h272c13.232,0,24,10.768,24,24V408z"/>
	</g>
</g>
<g>
</g>
<g>
</g>
<g>
</g>
<g>
</g>
<g>
</g>
<g>
</g>
<g>
</g>
<g>
</g>
<g>
</g>
<g>
</g>
<g>
</g>
<g>
</g>
<g>
</g>
<g>
</g>
<g>
</g>
</svg>
