<?xml version="1.0" encoding="iso-8859-1"?>
<!-- Generator: Adobe Illustrator 19.0.0, SVG Export Plug-In . SVG Version: 6.00 Build 0)  -->
<svg version="1.1" id="Capa_1" xmlns="http://www.w3.org/2000/svg" xmlns:xlink="http://www.w3.org/1999/xlink" x="0px" y="0px"
	 viewBox="0 0 485.656 485.656" style="enable-background:new 0 0 485.656 485.656;" xml:space="preserve">
<g>
	<g>
		<path d="M444.688,184l29.656,29.656l11.312-11.312l-32-32C452.16,168.84,450.12,168,448,168h-68.688l34.344-34.344
			c3.128-3.128,3.128-8.184,0-11.312l-32-32c-3.128-3.128-8.184-3.128-11.312,0L368,92.688l-7.032-7.032
			c-9.064-9.064-24.872-9.064-33.936,0l-52.688,52.688l11.312,11.312l52.688-52.688c3.024-3.016,8.288-3.016,11.312,0l7.032,7.032
			l-64,64H232c-2.12,0-4.16,0.84-5.656,2.344l-136,136c-5.784,5.784-8.968,13.48-8.968,21.656c0,8.176,3.184,15.872,8.968,21.656
			c3.768,3.768,8.304,6.208,13.088,7.592l-13.088,13.088c-0.88,0.88-1.536,1.952-1.936,3.128L74.232,416H0v16h80
			c0.848,0,1.696-0.136,2.528-0.408l48-16c1.176-0.392,2.248-1.056,3.128-1.936l29.72-29.72c0.216,0,0.408,0.064,0.624,0.064h80.688
			l21.656,21.656C267.84,407.16,269.88,408,272,408h96c2.12,0,4.16-0.84,5.656-2.344l2.344-2.344l82.344,82.344l11.312-11.312
			L387.312,392l30.344-30.344l-11.312-11.312L364.688,392h-89.376l-21.656-21.656C252.16,368.84,250.12,368,248,368h-84
			c-0.816,0-1.584-0.144-2.376-0.24c-0.072-0.016-0.144-0.048-0.216-0.064c-4.92-0.64-9.232-3.056-12.336-6.528
			c-0.08-0.096-0.16-0.192-0.24-0.288c-0.664-0.776-1.28-1.6-1.824-2.472c-0.152-0.248-0.28-0.512-0.416-0.768
			c-0.432-0.768-0.84-1.544-1.168-2.368c-0.2-0.504-0.328-1.04-0.488-1.568c-0.192-0.632-0.416-1.256-0.544-1.912
			C144.144,350.568,144,349.304,144,348c0-11.024,8.976-20,20-20h52h44c15.44,0,28-12.56,28-28c0-10.992-6.432-20.432-15.672-25.016
			L363.312,184H444.688z M145.584,378.768c0.072,0.04,0.12,0.104,0.192,0.144l-22.096,22.096l-31.032,10.344l10.344-31.032
			l25.64-25.64c0.016,0.072,0.048,0.136,0.064,0.208c1.48,7.616,5.408,14.312,10.88,19.4c0.112,0.104,0.24,0.192,0.36,0.296
			C141.68,376.16,143.56,377.552,145.584,378.768z M162.344,298.344l-40,40c-5.704,5.704-14.984,5.704-20.688,0
			c-5.704-5.704-5.704-14.984,0-20.688L235.312,184h41.376L162.344,298.344z M260,312h-24.688l24-24H260c6.616,0,12,5.384,12,12
			C272,306.616,266.616,312,260,312z M212.688,312h-41.376l2.344-2.344L376,107.312L396.688,128L212.688,312z"/>
	</g>
</g>
<g>
	<g>
		<rect y="0" width="480" height="16"/>
	</g>
</g>
<g>
	<g>
		<rect y="32" width="480" height="16"/>
	</g>
</g>
<g>
	<g>
		<rect y="64" width="296" height="16"/>
	</g>
</g>
<g>
	<g>
		<rect y="96" width="272" height="16"/>
	</g>
</g>
<g>
	<g>
		<rect y="128" width="248" height="16"/>
	</g>
</g>
<g>
	<g>
		<rect y="160" width="192" height="16"/>
	</g>
</g>
<g>
	<g>
		<rect y="192" width="160" height="16"/>
	</g>
</g>
<g>
	<g>
		<rect y="224" width="136" height="16"/>
	</g>
</g>
<g>
	<g>
		<rect y="256" width="88" height="16"/>
	</g>
</g>
<g>
	<g>
		<rect y="288" width="72" height="16"/>
	</g>
</g>
<g>
	<g>
		<rect y="320" width="64" height="16"/>
	</g>
</g>
<g>
	<g>
		<rect y="352" width="64" height="16"/>
	</g>
</g>
<g>
	<g>
		<rect y="384" width="64" height="16"/>
	</g>
</g>
<g>
	<g>
		<rect x="408" y="64" width="72" height="16"/>
	</g>
</g>
<g>
	<g>
		<rect x="432" y="96" width="48" height="16"/>
	</g>
</g>
<g>
	<g>
		<rect x="440" y="128" width="40" height="16"/>
	</g>
</g>
<g>
</g>
<g>
</g>
<g>
</g>
<g>
</g>
<g>
</g>
<g>
</g>
<g>
</g>
<g>
</g>
<g>
</g>
<g>
</g>
<g>
</g>
<g>
</g>
<g>
</g>
<g>
</g>
<g>
</g>
</svg>
