<?xml version="1.0" encoding="iso-8859-1"?>
<!-- Generator: Adobe Illustrator 19.0.0, SVG Export Plug-In . SVG Version: 6.00 Build 0)  -->
<svg version="1.1" id="Capa_1" xmlns="http://www.w3.org/2000/svg" xmlns:xlink="http://www.w3.org/1999/xlink" x="0px" y="0px"
	 viewBox="0 0 480 480" style="enable-background:new 0 0 480 480;" xml:space="preserve">
<g>
	<g>
		<path d="M337.656,394.736L314.32,270.28c-6.624-35.312-5.224-72.32,4.032-107.024c11.736-44.016,11.6-90.512-0.384-134.448
			C313.336,11.84,297.832,0,280.256,0h-80.512c-17.576,0-33.088,11.84-37.712,28.808c-11.984,43.936-12.12,90.432-0.384,134.448
			c9.256,34.704,10.656,71.712,4.032,107.024l-23.336,124.456c-3.96,21.12,1.64,42.712,15.36,59.248
			C171.432,470.512,191.632,480,213.12,480h53.768c21.488,0,41.68-9.488,55.408-26.016
			C336.016,437.448,341.616,415.848,337.656,394.736z M302.888,159.128c-0.784,2.936-1.424,5.904-2.096,8.872H264h-16v-64h62.816
			C310.256,122.56,307.704,141.064,302.888,159.128z M256,184v16c0,4.408-3.592,8-8,8h-16c-4.408,0-8-3.592-8-8v-16H256z
			 M177.472,33.016C180.2,23,189.36,16,199.744,16h80.504c10.384,0,19.544,7,22.272,17.016c4.912,18,7.568,36.464,8.24,54.984
			H169.232C169.904,69.48,172.56,51.016,177.472,33.016z M169.184,104H232v64h-16h-36.792c-0.68-2.96-1.312-5.936-2.096-8.872
			C172.296,141.064,169.744,122.56,169.184,104z M264,464h-48v-32h48V464z M309.976,443.768
			c-7.816,9.416-18.344,15.856-29.976,18.648V424c0-4.416-3.584-8-8-8h-64c-4.416,0-8,3.584-8,8v38.408
			c-11.632-2.792-22.16-9.232-29.976-18.648c-10.672-12.856-15.024-29.656-11.952-46.088l23.336-124.448
			c5.496-29.32,5.744-59.72,0.952-89.224H208v16c0,13.232,10.768,24,24,24h16c13.232,0,24-10.768,24-24v-16h25.64
			c-4.792,29.504-4.552,59.912,0.952,89.224l23.336,124.456C325.008,414.112,320.648,430.904,309.976,443.768z"/>
	</g>
</g>
<g>
	<g>
		<rect x="232" y="32" width="16" height="40"/>
	</g>
</g>
<g>
	<g>
		<path d="M213.656,125.656l-11.312-11.312l-16,16c-3.128,3.128-3.128,8.184,0,11.312l16,16l11.312-11.312L203.312,136
			L213.656,125.656z"/>
	</g>
</g>
<g>
	<g>
		<path d="M293.656,130.344l-16-16l-11.312,11.312L276.688,136l-10.344,10.344l11.312,11.312l16-16
			C296.784,138.528,296.784,133.472,293.656,130.344z"/>
	</g>
</g>
<g>
	<g>
		<rect x="344" y="232" width="16" height="16"/>
	</g>
</g>
<g>
	<g>
		<rect x="376" y="264" width="16" height="16"/>
	</g>
</g>
<g>
	<g>
		<rect x="376" y="232" width="16" height="16"/>
	</g>
</g>
<g>
	<g>
		<rect x="376" y="200" width="16" height="16"/>
	</g>
</g>
<g>
	<g>
		<rect x="408" y="264" width="16" height="16"/>
	</g>
</g>
<g>
	<g>
		<rect x="408" y="296" width="16" height="16"/>
	</g>
</g>
<g>
	<g>
		<rect x="408" y="232" width="16" height="16"/>
	</g>
</g>
<g>
	<g>
		<rect x="408" y="200" width="16" height="16"/>
	</g>
</g>
<g>
	<g>
		<rect x="408" y="168" width="16" height="16"/>
	</g>
</g>
<g>
	<g>
		<rect x="120" y="232" width="16" height="16"/>
	</g>
</g>
<g>
	<g>
		<rect x="88" y="200" width="16" height="16"/>
	</g>
</g>
<g>
	<g>
		<rect x="88" y="232" width="16" height="16"/>
	</g>
</g>
<g>
	<g>
		<rect x="88" y="264" width="16" height="16"/>
	</g>
</g>
<g>
	<g>
		<rect x="56" y="200" width="16" height="16"/>
	</g>
</g>
<g>
	<g>
		<rect x="56" y="168" width="16" height="16"/>
	</g>
</g>
<g>
	<g>
		<rect x="56" y="232" width="16" height="16"/>
	</g>
</g>
<g>
	<g>
		<rect x="56" y="264" width="16" height="16"/>
	</g>
</g>
<g>
	<g>
		<rect x="56" y="296" width="16" height="16"/>
	</g>
</g>
<g>
</g>
<g>
</g>
<g>
</g>
<g>
</g>
<g>
</g>
<g>
</g>
<g>
</g>
<g>
</g>
<g>
</g>
<g>
</g>
<g>
</g>
<g>
</g>
<g>
</g>
<g>
</g>
<g>
</g>
</svg>
