<?xml version="1.0" encoding="iso-8859-1"?>
<!-- Generator: Adobe Illustrator 19.0.0, SVG Export Plug-In . SVG Version: 6.00 Build 0)  -->
<svg version="1.1" id="Capa_1" xmlns="http://www.w3.org/2000/svg" xmlns:xlink="http://www.w3.org/1999/xlink" x="0px" y="0px"
	 viewBox="0 0 480.003 480.003" style="enable-background:new 0 0 480.003 480.003;" xml:space="preserve">
<g>
	<g>
		<path d="M468,176.003h-56V69.547l58.816-22.056c2.976-1.12,5.008-3.896,5.176-7.072c0.168-3.176-1.568-6.16-4.416-7.576l-64-32
			c-2.488-1.232-5.432-1.112-7.784,0.352C397.44,2.659,396,5.227,396,8.003v8v48v112h-8c-4.424,0-8,3.576-8,8v40h-72
			c-4.424,0-8,3.576-8,8v40h-8v-56c0-22.056-17.944-40-40-40h-24v-40h40c22.056,0,40-17.944,40-40v-72c0-4.424-3.576-8-8-8h-32
			c-4.424,0-8,3.576-8,8v64h-39.12c4.104-7.072,6.496-15.256,6.496-24c0-26.472-21.528-48-48-48c-26.472,0-48,21.528-48,48
			c0,10.512,3.432,20.208,9.184,28.128l-44.216,44.216c-15.592,15.592-15.592,40.976,0,56.568l29.376,29.368
			c3.128,3.128,8.184,3.128,11.312,0L148,211.315v108.688c-4.424,0-8,3.576-8,8v40H68c-4.424,0-8,3.576-8,8v40H4v16h56v32H4v16h64
			h80h80h80h80h80c4.424,0,8-3.576,8-8v-48v-48v-48v-48v-48v-48C476,179.579,472.424,176.003,468,176.003z M412,20.947
			l36.016,18.008L412,52.459V20.947z M140,464.003H76v-32h64V464.003z M140,416.003H76v-32h64V416.003z M179.376,32.003
			c17.648,0,32,14.352,32,32s-14.352,32-32,32c-17.648,0-32-14.352-32-32S161.728,32.003,179.376,32.003z M148,173.939l-9.312-9.312
			l9.312-9.312V173.939z M150.344,130.347l-28.624,28.624c-3.128,3.128-3.128,8.184,0,11.312l22.344,22.344l-12.688,12.688
			l-23.72-23.712c-9.36-9.36-9.36-24.584,0-33.944l44.304-44.304c7.784,5.432,17.224,8.648,27.416,8.648
			c0.208,0,0.416-0.032,0.624-0.032v48.032h16v-51.032c3.488-1.296,6.8-2.944,9.848-4.968H268c4.424,0,8-3.576,8-8v-64h16v64
			c0,13.232-10.768,24-24,24h-48c-4.424,0-8,3.576-8,8v56c0,4.424,3.576,8,8,8h32c13.232,0,24,10.768,24,24v56h-24v-48
			c0-4.424-3.576-8-8-8h-48c-4.424,0-8,3.576-8,8v96h-24v-184c0-3.232-1.944-6.16-4.936-7.392
			C156.072,127.363,152.64,128.059,150.344,130.347z M220,464.003h-64v-32h64V464.003z M220,416.003h-64v-32h64V416.003z
			 M220,368.003h-64v-32h40h24V368.003z M220,280.003v40h-16v-88h32v40h-8C223.576,272.003,220,275.579,220,280.003z M300,464.003
			h-64v-32h64V464.003z M300,416.003h-64v-32h64V416.003z M300,368.003h-64v-32h64V368.003z M300,320.003h-64v-32h8h40h16V320.003z
			 M380,464.003h-64v-32h64V464.003z M380,416.003h-64v-32h64V416.003z M380,368.003h-64v-32h64V368.003z M380,320.003h-64v-32h64
			V320.003z M380,272.003h-64v-32h64V272.003z M460,464.003h-64v-32h64V464.003z M460,416.003h-64v-32h64V416.003z M460,368.003h-64
			v-32h64V368.003z M460,320.003h-64v-32h64V320.003z M460,272.003h-64v-32h64V272.003z M460,224.003h-64v-32h64V224.003z"/>
	</g>
</g>
<g>
</g>
<g>
</g>
<g>
</g>
<g>
</g>
<g>
</g>
<g>
</g>
<g>
</g>
<g>
</g>
<g>
</g>
<g>
</g>
<g>
</g>
<g>
</g>
<g>
</g>
<g>
</g>
<g>
</g>
</svg>
