<?xml version="1.0" encoding="iso-8859-1"?>
<!-- Generator: Adobe Illustrator 19.0.0, SVG Export Plug-In . SVG Version: 6.00 Build 0)  -->
<svg version="1.1" id="Capa_1" xmlns="http://www.w3.org/2000/svg" xmlns:xlink="http://www.w3.org/1999/xlink" x="0px" y="0px"
	 viewBox="0 0 480 480" style="enable-background:new 0 0 480 480;" xml:space="preserve">
<g>
	<g>
		<path d="M412.792,372.032l-57.264-3.816L331.312,344H400c22.056,0,40-17.944,40-40V24c0-4.424-3.576-8-8-8h-24V8
			c0-4.424-3.576-8-8-8H240H80c-4.424,0-8,3.576-8,8v8H48c-4.424,0-8,3.576-8,8v280c0,22.056,17.944,40,40,40h71.352l-19.392,24.24
			l-64.456,4.032C29.656,374.632,0,406.192,0,444.128V480h16v-35.872c0-29.504,23.064-54.048,52.504-55.888l64.76-4.048
			l53.528,45.88c1.504,1.288,3.36,1.928,5.208,1.928c2.056,0,4.104-0.792,5.656-2.344l9.104-9.104l7.784,11.672l-21.4,35.656
			c-0.752,1.248-1.144,2.664-1.144,4.12v8h16v-5.784l22.856-38.104c1.592-2.648,1.512-5.984-0.2-8.552l-12.36-18.544L240,387.312
			l21.704,21.704l-12.36,18.544c-1.72,2.568-1.8,5.904-0.2,8.552L272,474.216V480h16v-8c0-1.456-0.392-2.872-1.144-4.12
			l-21.4-35.656l7.784-11.672l9.104,9.104c1.544,1.552,3.6,2.344,5.656,2.344c1.68,0,3.368-0.52,4.8-1.6l61.624-46.216L411.728,388
			C441.04,389.952,464,414.496,464,443.872V480h16v-36.128C480,406.104,450.48,374.544,412.792,372.032z M248,16h144v280H248V16z
			 M88,16h144v280H88V16z M80,328c-13.232,0-24-10.768-24-24V32h16v272c0,4.424,3.576,8,8,8h160h160c4.424,0,8-3.576,8-8V32h16v272
			c0,13.232-10.768,24-24,24H80z M191.576,413.104L147.08,374.96l22.944-28.688l56.824,31.568L191.576,413.104z M198.872,344h82.256
			L240,366.848L198.872,344z M288.752,413.44l-11.096-11.096l-24.496-24.496l57.456-31.92l29.208,29.208L288.752,413.44z"/>
	</g>
</g>
<g>
	<g>
		<rect x="104" y="40" width="112" height="16"/>
	</g>
</g>
<g>
	<g>
		<rect x="104" y="72" width="112" height="16"/>
	</g>
</g>
<g>
	<g>
		<rect x="104" y="104" width="112" height="16"/>
	</g>
</g>
<g>
	<g>
		<rect x="104" y="136" width="112" height="16"/>
	</g>
</g>
<g>
	<g>
		<rect x="104" y="168" width="112" height="16"/>
	</g>
</g>
<g>
	<g>
		<rect x="104" y="200" width="112" height="16"/>
	</g>
</g>
<g>
	<g>
		<rect x="104" y="232" width="112" height="16"/>
	</g>
</g>
<g>
	<g>
		<rect x="104" y="264" width="112" height="16"/>
	</g>
</g>
<g>
	<g>
		<rect x="264" y="40" width="112" height="16"/>
	</g>
</g>
<g>
	<g>
		<rect x="264" y="72" width="112" height="16"/>
	</g>
</g>
<g>
	<g>
		<rect x="264" y="104" width="112" height="16"/>
	</g>
</g>
<g>
	<g>
		<rect x="264" y="136" width="112" height="16"/>
	</g>
</g>
<g>
	<g>
		<rect x="264" y="168" width="112" height="16"/>
	</g>
</g>
<g>
	<g>
		<rect x="264" y="200" width="112" height="16"/>
	</g>
</g>
<g>
	<g>
		<rect x="264" y="232" width="112" height="16"/>
	</g>
</g>
<g>
	<g>
		<rect x="264" y="264" width="112" height="16"/>
	</g>
</g>
<g>
</g>
<g>
</g>
<g>
</g>
<g>
</g>
<g>
</g>
<g>
</g>
<g>
</g>
<g>
</g>
<g>
</g>
<g>
</g>
<g>
</g>
<g>
</g>
<g>
</g>
<g>
</g>
<g>
</g>
</svg>
