<?xml version="1.0" encoding="iso-8859-1"?>
<!-- Generator: Adobe Illustrator 19.0.0, SVG Export Plug-In . SVG Version: 6.00 Build 0)  -->
<svg version="1.1" id="Capa_1" xmlns="http://www.w3.org/2000/svg" xmlns:xlink="http://www.w3.org/1999/xlink" x="0px" y="0px"
	 viewBox="0 0 477.536 477.536" style="enable-background:new 0 0 477.536 477.536;" xml:space="preserve">
<g>
	<g>
		<path d="M437.456,329.568c-5.92-4.992-13.752-7.064-21.312-5.752l-158.656,27.592l-45.064-45.064
			c-1.496-1.504-3.528-2.344-5.656-2.344h-80c0-4.416-3.576-8-8-8h-32h-56v16h48v112h-48v16h56h32c4.424,0,8-3.584,8-8h22.112
			l85.528,42.768c3.704,1.848,7.704,2.776,11.704,2.768c4.544,0,9.096-1.192,13.168-3.568L433.808,372.16
			c7.992-4.672,12.96-13.328,12.96-22.584C446.768,341.84,443.368,334.544,437.456,329.568z M110.768,424h-16V312h16V424z
			 M425.736,358.344l-174.52,101.8c-2.96,1.736-6.568,1.848-9.648,0.312l-87.216-43.608c-1.112-0.56-2.344-0.848-3.584-0.848h-24
			v-96h76.688l63.032,63.024c2.76,2.768,4.28,6.44,4.28,10.344c0,8.072-6.56,14.632-14.624,14.632c-3.848,0-7.616-1.56-10.344-4.288
			l-41.376-41.368l-11.312,11.312l41.376,41.368c5.784,5.792,13.464,8.976,21.656,8.976c16.88,0,30.624-13.736,30.624-30.632
			c0-8.176-3.184-15.864-8.968-21.656l-6.472-6.472l147.552-25.664c2.984-0.528,5.976,0.296,8.272,2.232
			c2.296,1.936,3.616,4.768,3.616,7.768C430.768,353.168,428.84,356.528,425.736,358.344z"/>
	</g>
</g>
<g>
	<g>
		<path d="M302.768,0c-70.576,0-128,57.424-128,128c0,49.088,28.088,93.68,72,115.064V296c0,13.232,10.768,24,24,24h64
			c13.232,0,24-10.768,24-24v-52.936c43.912-21.384,72-65.984,72-115.064C430.768,57.424,373.344,0,302.768,0z M342.768,296
			c0,4.408-3.584,8-8,8h-64c-4.416,0-8-3.592-8-8v-8h80V296z M342.768,272h-80v-16h80V272z M277.744,143.016
			c1.464,1.184,3.24,1.776,5.024,1.776s3.56-0.592,5.024-1.776c9.512-7.68,14.976-18.984,14.976-31.016
			c0-1.856-0.176-3.68-0.424-5.488c-0.072-0.52-0.168-1.024-0.264-1.536c-0.248-1.392-0.576-2.76-0.976-4.104
			c-0.128-0.432-0.232-0.872-0.376-1.304c-0.568-1.712-1.24-3.384-2.04-5c-0.136-0.28-0.304-0.536-0.448-0.816
			c-0.704-1.344-1.48-2.64-2.336-3.904c-0.152-0.216-0.256-0.464-0.408-0.68c4.688-1.552,9.856-1.552,14.544,0
			c-0.152,0.216-0.256,0.464-0.408,0.68c-0.856,1.264-1.64,2.56-2.336,3.904c-0.144,0.272-0.312,0.536-0.448,0.816
			c-0.8,1.616-1.472,3.288-2.04,5c-0.144,0.432-0.248,0.864-0.376,1.304c-0.4,1.344-0.72,2.712-0.976,4.104
			c-0.096,0.512-0.192,1.016-0.264,1.536c-0.248,1.808-0.424,3.632-0.424,5.488c0,12.032,5.464,23.336,14.976,31.016
			c1.464,1.184,3.24,1.776,5.024,1.776s3.56-0.592,5.024-1.776c9.512-7.68,14.976-18.984,14.976-31.016
			c0-1.856-0.176-3.68-0.424-5.488c-0.072-0.52-0.168-1.024-0.264-1.536c-0.248-1.392-0.576-2.76-0.976-4.104
			c-0.128-0.432-0.232-0.872-0.376-1.304c-0.568-1.712-1.24-3.384-2.04-5c-0.136-0.28-0.304-0.536-0.448-0.816
			c-0.704-1.344-1.48-2.64-2.336-3.904c-0.152-0.216-0.256-0.464-0.408-0.68C337.84,88.4,340.28,88,342.768,88
			c12.784,0,24,12.024,24,25.744c0,11.76-5.184,22.832-14.224,30.36l-30.896,25.752c-1.824,1.52-2.88,3.768-2.88,6.144v64h-32v-64
			c0-2.376-1.056-4.624-2.872-6.144L253,144.104c-9.048-7.536-14.232-18.6-14.232-30.36c0-13.72,11.216-25.744,24-25.744
			c2.488,0,4.928,0.4,7.272,1.176c-0.152,0.216-0.256,0.464-0.408,0.68c-0.856,1.264-1.64,2.56-2.336,3.904
			c-0.144,0.272-0.312,0.536-0.448,0.816c-0.8,1.616-1.472,3.288-2.04,5c-0.144,0.432-0.248,0.864-0.376,1.304
			c-0.4,1.344-0.72,2.712-0.976,4.104c-0.096,0.512-0.192,1.016-0.264,1.536c-0.248,1.8-0.424,3.624-0.424,5.48
			C262.768,124.032,268.232,135.336,277.744,143.016z M278.768,112c0-1.592,0.224-3.16,0.536-4.696
			c0.08-0.368,0.16-0.744,0.248-1.104c0.384-1.496,0.872-2.968,1.544-4.368c0.056-0.112,0.128-0.216,0.192-0.328
			c0.408-0.824,0.968-1.568,1.48-2.336c0.504,0.776,1.064,1.52,1.48,2.336c0.056,0.112,0.128,0.216,0.184,0.328
			c0.672,1.392,1.16,2.864,1.544,4.368c0.096,0.368,0.176,0.736,0.248,1.104c0.32,1.536,0.544,3.104,0.544,4.696
			s-0.224,3.16-0.536,4.696c-0.08,0.368-0.16,0.744-0.248,1.104c-0.384,1.496-0.872,2.968-1.544,4.368
			c-0.056,0.112-0.128,0.216-0.192,0.328c-0.408,0.824-0.968,1.568-1.48,2.336c-0.504-0.776-1.064-1.52-1.48-2.336
			c-0.056-0.112-0.136-0.216-0.192-0.328c-0.672-1.392-1.16-2.864-1.544-4.368c-0.096-0.368-0.176-0.736-0.248-1.104
			C278.992,115.16,278.768,113.592,278.768,112z M318.768,112c0-1.592,0.224-3.16,0.536-4.696c0.08-0.368,0.16-0.744,0.248-1.104
			c0.384-1.496,0.872-2.968,1.544-4.368c0.056-0.112,0.128-0.216,0.192-0.328c0.408-0.824,0.968-1.568,1.48-2.336
			c0.504,0.776,1.064,1.52,1.48,2.336c0.056,0.112,0.128,0.216,0.184,0.328c0.672,1.392,1.16,2.864,1.544,4.368
			c0.096,0.368,0.176,0.736,0.248,1.104c0.32,1.536,0.544,3.104,0.544,4.696s-0.224,3.16-0.536,4.696
			c-0.08,0.368-0.16,0.744-0.248,1.104c-0.384,1.496-0.872,2.968-1.544,4.368c-0.056,0.112-0.128,0.216-0.192,0.328
			c-0.408,0.824-0.968,1.568-1.48,2.336c-0.504-0.776-1.064-1.52-1.48-2.336c-0.056-0.112-0.136-0.216-0.192-0.328
			c-0.672-1.392-1.16-2.864-1.544-4.368c-0.096-0.368-0.176-0.736-0.248-1.104C318.992,115.16,318.768,113.592,318.768,112z
			 M347.568,230.624c-2.912,1.272-4.8,4.152-4.8,7.328V240h-8v-60.256l28.024-23.352c12.696-10.576,19.976-26.128,19.976-42.648
			c0-22.624-18.32-41.744-40-41.744c-7.104,0-13.912,1.952-20.032,5.576c-12.32-7.136-27.624-7.136-39.944,0
			C276.68,73.952,269.872,72,262.768,72c-21.68,0-40,19.12-40,41.744c0,16.52,7.28,32.072,19.976,42.656l28.024,23.344V240h-8
			v-2.048c0-3.176-1.88-6.056-4.8-7.328c-40.816-17.856-67.2-58.136-67.2-102.624c0-61.76,50.24-112,112-112s112,50.24,112,112
			C414.768,172.488,388.384,212.768,347.568,230.624z"/>
	</g>
</g>
<g>
</g>
<g>
</g>
<g>
</g>
<g>
</g>
<g>
</g>
<g>
</g>
<g>
</g>
<g>
</g>
<g>
</g>
<g>
</g>
<g>
</g>
<g>
</g>
<g>
</g>
<g>
</g>
<g>
</g>
</svg>
