<?xml version="1.0" encoding="iso-8859-1"?>
<!-- Generator: Adobe Illustrator 19.0.0, SVG Export Plug-In . SVG Version: 6.00 Build 0)  -->
<svg version="1.1" id="Capa_1" xmlns="http://www.w3.org/2000/svg" xmlns:xlink="http://www.w3.org/1999/xlink" x="0px" y="0px"
	 viewBox="0 0 480 480" style="enable-background:new 0 0 480 480;" xml:space="preserve">
<g>
	<g>
		<path d="M312,336H152v-40c0-26.472-21.528-48-48-48c-4.416,0-8,3.576-8,8v80h-8H56H0v16h48v112H0v16h56h32h104h24h8
			c13.232,0,24-10.768,24-24c0-6.168-2.408-11.744-6.24-16c3.84-4.256,6.24-9.832,6.24-16c0-6.168-2.408-11.744-6.24-16
			c3.84-4.256,6.24-9.832,6.24-16c0-2.816-0.576-5.488-1.472-8H312c13.232,0,24-10.768,24-24S325.232,336,312,336z M80,464H64V352
			h16V464z M224,464h-8h-24c-4.408,0-8-3.584-8-8c0-4.416,3.592-8,8-8h8h16h8c4.408,0,8,3.584,8,8C232,460.416,228.408,464,224,464z
			 M224,432h-8h-16h-8c-4.408,0-8-3.584-8-8c0-4.416,3.592-8,8-8h8h8h8h8c4.408,0,8,3.584,8,8C232,428.416,228.408,432,224,432z
			 M224,400h-8h-8h-8h-8c-4.408,0-8-3.584-8-8c0-4.416,3.592-8,8-8h8h8h16c4.408,0,8,3.584,8,8C232,396.416,228.408,400,224,400z
			 M312,368h-88h-16h-8h-8c-13.232,0-24,10.768-24,24c0,6.168,2.408,11.744,6.24,16c-3.84,4.256-6.24,9.832-6.24,16
			c0,6.168,2.408,11.744,6.24,16c-3.84,4.256-6.24,9.832-6.24,16c0,2.816,0.576,5.488,1.472,8H96V352h8c4.416,0,8-3.576,8-8v-78.984
			c13.784,3.552,24,16.104,24,30.984v48c0,4.424,3.584,8,8,8h168c4.408,0,8,3.584,8,8C320,364.416,316.408,368,312,368z"/>
	</g>
</g>
<g>
	<g>
		<path d="M480,16V0h-56h-32H256c-13.232,0-24,10.768-24,24c0,6.168,2.408,11.744,6.24,16c-3.832,4.256-6.24,9.832-6.24,16
			c0,6.168,2.408,11.744,6.24,16c-3.84,4.256-6.24,9.832-6.24,16c0,2.816,0.576,5.488,1.472,8H168c-13.232,0-24,10.768-24,24
			s10.768,24,24,24h160v40c0,26.472,21.528,48,48,48c4.416,0,8-3.576,8-8v-80h8h32h56v-16h-48V16H480z M384,128h-8
			c-4.416,0-8,3.576-8,8v78.984c-13.784-3.552-24-16.104-24-30.984v-48c0-4.424-3.584-8-8-8H168c-4.408,0-8-3.584-8-8s3.592-8,8-8
			h88h48V96h-48c-4.408,0-8-3.584-8-8s3.592-8,8-8h48V64h-48c-4.408,0-8-3.584-8-8s3.592-8,8-8h48V32h-48c-4.408,0-8-3.584-8-8
			s3.592-8,8-8h128V128z M416,128h-16V16h16V128z"/>
	</g>
</g>
<g>
	<g>
		<polygon points="248,232 248,216 232,216 232,232 216,232 216,248 232,248 232,264 248,264 248,248 264,248 264,232 		"/>
	</g>
</g>
<g>
	<g>
		<rect x="288" y="168" width="16" height="16"/>
	</g>
</g>
<g>
	<g>
		<rect x="288" y="296" width="16" height="16"/>
	</g>
</g>
<g>
	<g>
		<rect x="176" y="168" width="16" height="16"/>
	</g>
</g>
<g>
	<g>
		<rect x="176" y="296" width="16" height="16"/>
	</g>
</g>
<g>
</g>
<g>
</g>
<g>
</g>
<g>
</g>
<g>
</g>
<g>
</g>
<g>
</g>
<g>
</g>
<g>
</g>
<g>
</g>
<g>
</g>
<g>
</g>
<g>
</g>
<g>
</g>
<g>
</g>
</svg>
