<?xml version="1.0" encoding="iso-8859-1"?>
<!-- Generator: Adobe Illustrator 19.0.0, SVG Export Plug-In . SVG Version: 6.00 Build 0)  -->
<svg version="1.1" id="Capa_1" xmlns="http://www.w3.org/2000/svg" xmlns:xlink="http://www.w3.org/1999/xlink" x="0px" y="0px"
	 viewBox="0 0 488 488" style="enable-background:new 0 0 488 488;" xml:space="preserve">
<g>
	<g>
		<rect x="288" y="196" width="40" height="16"/>
	</g>
</g>
<g>
	<g>
		<path d="M352,268h-48c-13.232,0-24,10.768-24,24s10.768,24,24,24h48c13.232,0,24-10.768,24-24S365.232,268,352,268z M336,300h-32
			c-4.416,0-8-3.584-8-8c0-4.416,3.584-8,8-8h32V300z M352,300v-16c4.416,0,8,3.584,8,8C360,296.416,356.416,300,352,300z"/>
	</g>
</g>
<g>
	<g>
		<path d="M424,404v-64c0-4.424-3.576-8-8-8h-72h-8h-24v16h16v52.688l-5.656,5.656c-3.128,3.128-3.128,8.184,0,11.312l5.656,5.656
			V436c0,4.424,3.576,8,8,8h80c4.424,0,8-3.576,8-8v-16c0-2.128-0.84-4.16-2.344-5.656L419.312,412l2.344-2.344
			C423.16,408.16,424,406.128,424,404z M408,400.688l-5.656,5.656c-3.128,3.128-3.128,8.184,0,11.312l5.656,5.656V428h-64v-8
			c0-2.128-0.84-4.16-2.344-5.656L339.312,412l2.344-2.344C343.16,408.16,344,406.128,344,404v-56h64V400.688z"/>
	</g>
</g>
<g>
	<g>
		<path d="M448,164h-8v-12c0-19.848-16.152-36-36-36H292c-11.032,0-20-8.968-20-20s8.968-20,20-20h160c19.848,0,36-16.152,36-36
			S471.848,4,452,4H236c-19.848,0-36,16.152-36,36v408c0,11.032-8.968,20-20,20H60c-11.032,0-20-8.968-20-20V151.792
			c5.504-0.008,10.856-1.872,15.168-5.4C60.784,141.824,64,135.04,64,127.8c0-1.24-0.096-2.48-0.28-3.632
			c-0.488-3.176,0.704-7.056,3.648-11.856C70.4,107.344,72,101.632,72,95.8c0-9.488-4.168-18.424-11.448-24.52
			c-7.28-6.104-16.88-8.664-26.344-6.96c-3.376,0.6-6.568,1.792-9.52,3.424l-5.232-4.752c-2.304-2.304-3.432-4.848-3.456-7.784
			C16.08,35.784,32.024,20,51.6,20h8.8C80.032,20,96,35.968,96,55.6v10.168c0,32.704-12.736,63.448-35.856,86.568
			c-4.192,4.192-6.936,9.704-7.832,15.528c-0.2,0.72-0.312,1.464-0.312,2.24V172c0,0.792,0.12,1.552,0.328,2.272
			C54.344,186.912,65.504,196,80,196l-0.2-16c-5.592,0-11.232-2.776-11.76-8.952c0.224-2.768,1.448-5.424,3.416-7.392
			C97.6,137.504,112,102.752,112,65.776V55.6C112,27.152,88.848,4,60.4,4h-8.8C23.28,4,0.208,26.832,0,54.968
			c0,0.056,0,0.104,0,0.16c0,0.032,0,0.064,0,0.104s0,0.08,0,0.128c0,0.096,0,0.184,0.008,0.28
			c0.128,7.024,2.936,13.472,8.416,18.936l4.624,4.192c-2.2,3.448-3.832,7.28-4.552,11.392c-1.416,8.144,0.28,16.36,4.784,23.152
			c2.8,4.2,3.064,9.184,2.8,12.632c-0.2,2.608,0.024,5.256,0.672,7.872c1.16,4.672,3.76,8.768,7.248,11.88V448
			c0,19.848,16.152,36,36,36h120c19.848,0,36-16.152,36-36V40c0-11.032,8.968-20,20-20h216c11.032,0,20,8.968,20,20s-8.968,20-20,20
			H292c-19.848,0-36,16.152-36,36s16.152,36,36,36h112c11.032,0,20,8.968,20,20v12H288c-22.056,0-40,17.944-40,40v64v16v160
			c0,22.056,17.944,40,40,40h160c22.056,0,40-17.944,40-40V292v-24v-64C488,181.944,470.056,164,448,164z M38.224,135.616
			c-2.816-0.576-5.256-2.912-5.944-5.672c-0.232-0.944-0.32-1.872-0.248-2.776c0.664-8.52-1.208-16.384-5.424-22.72
			c-1.568-2.376-3.256-6.304-2.344-11.56C25.352,86.568,30.72,81.176,37,80.064c1.016-0.176,2.024-0.264,3.008-0.264
			c3.776,0,7.336,1.28,10.264,3.736C53.912,86.584,56,91.056,56,95.8c0,2.888-0.792,5.72-2.28,8.16
			c-5,8.16-6.896,15.552-5.808,22.672C47.968,127.008,48,127.4,48,127.8c0,2.416-1.072,4.68-2.944,6.2
			C43.944,134.896,41.608,136.288,38.224,135.616z M472,292v152c0,13.232-10.768,24-24,24H288c-13.232,0-24-10.768-24-24V284v-16
			c0-13.232,10.768-24,24-24h160c13.232,0,24,10.768,24,24V292z M472,236.208c-6.704-5.08-14.96-8.208-24-8.208H288
			c-9.04,0-17.296,3.128-24,8.208V204c0-13.232,10.768-24,24-24h136v24h16v-24h8c13.232,0,24,10.768,24,24V236.208z"/>
	</g>
</g>
<g>
	<g>
		<rect x="112" y="420" width="16" height="16"/>
	</g>
</g>
<g>
	<g>
		<rect x="112" y="388" width="16" height="16"/>
	</g>
</g>
<g>
	<g>
		<rect x="112" y="356" width="16" height="16"/>
	</g>
</g>
<g>
</g>
<g>
</g>
<g>
</g>
<g>
</g>
<g>
</g>
<g>
</g>
<g>
</g>
<g>
</g>
<g>
</g>
<g>
</g>
<g>
</g>
<g>
</g>
<g>
</g>
<g>
</g>
<g>
</g>
</svg>
