<?xml version="1.0" encoding="iso-8859-1"?>
<!-- Generator: Adobe Illustrator 19.0.0, SVG Export Plug-In . SVG Version: 6.00 Build 0)  -->
<svg version="1.1" id="Capa_1" xmlns="http://www.w3.org/2000/svg" xmlns:xlink="http://www.w3.org/1999/xlink" x="0px" y="0px"
	 viewBox="0 0 480 480" style="enable-background:new 0 0 480 480;" xml:space="preserve">
<g>
	<g>
		<path d="M440,0H80C57.944,0,40,17.944,40,40v16H24C10.768,56,0,66.768,0,80s10.768,24,24,24h16v32H24c-13.232,0-24,10.768-24,24
			s10.768,24,24,24h16v32H24c-13.232,0-24,10.768-24,24s10.768,24,24,24h16v32H24c-13.232,0-24,10.768-24,24s10.768,24,24,24h16v32
			H24c-13.232,0-24,10.768-24,24s10.768,24,24,24h16v16c0,22.056,17.944,40,40,40h360c22.056,0,40-17.944,40-40V40
			C480,17.944,462.056,0,440,0z M24,88c-4.408,0-8-3.592-8-8s3.592-8,8-8h48c4.408,0,8,3.592,8,8s-3.592,8-8,8H24z M24,168
			c-4.408,0-8-3.592-8-8s3.592-8,8-8h48c4.408,0,8,3.592,8,8s-3.592,8-8,8H24z M24,248c-4.408,0-8-3.592-8-8c0-4.408,3.592-8,8-8h48
			c4.408,0,8,3.592,8,8s-3.592,8-8,8H24z M24,328c-4.408,0-8-3.592-8-8c0-4.408,3.592-8,8-8h48c4.408,0,8,3.592,8,8
			c0,4.408-3.592,8-8,8H24z M24,408c-4.408,0-8-3.592-8-8c0-4.408,3.592-8,8-8h48c4.408,0,8,3.592,8,8c0,4.408-3.592,8-8,8H24z
			 M464,440c0,13.232-10.768,24-24,24H80c-13.232,0-24-10.768-24-24v-16h16c13.232,0,24-10.768,24-24s-10.768-24-24-24H56v-32h16
			c13.232,0,24-10.768,24-24s-10.768-24-24-24H56v-32h16c13.232,0,24-10.768,24-24s-10.768-24-24-24H56v-32h16
			c13.232,0,24-10.768,24-24s-10.768-24-24-24H56v-32h16c13.232,0,24-10.768,24-24S85.232,56,72,56H56V40c0-13.232,10.768-24,24-24
			h360c13.232,0,24,10.768,24,24V440z"/>
	</g>
</g>
<g>
	<g>
		<path d="M392,64H152c-4.416,0-8,3.584-8,8v64c0,4.416,3.584,8,8,8h240c4.416,0,8-3.584,8-8V72C400,67.584,396.416,64,392,64z
			 M384,128H160V80h224V128z"/>
	</g>
</g>
<g>
	<g>
		<path d="M344,176H200c-4.416,0-8,3.584-8,8v128c0,4.416,3.584,8,8,8h144c4.416,0,8-3.584,8-8V184C352,179.584,348.416,176,344,176
			z M208,192h22.864c-2.912,11.192-11.672,19.952-22.864,22.864V192z M336,304H208v-12.688l24-24l18.344,18.344
			c3.128,3.128,8.184,3.128,11.312,0L304,243.312l32,32V304z M336,252.688l-26.344-26.344c-3.128-3.128-8.184-3.128-11.312,0
			L256,268.688l-18.344-18.344c-3.128-3.128-8.184-3.128-11.312,0L208,268.688V231.28c20.056-3.384,35.888-19.224,39.28-39.28H336
			V252.688z"/>
	</g>
</g>
<g>
	<g>
		<rect x="184" y="352" width="16" height="16"/>
	</g>
</g>
<g>
	<g>
		<rect x="216" y="352" width="16" height="16"/>
	</g>
</g>
<g>
	<g>
		<rect x="248" y="352" width="16" height="16"/>
	</g>
</g>
<g>
	<g>
		<rect x="280" y="352" width="16" height="16"/>
	</g>
</g>
<g>
	<g>
		<rect x="312" y="352" width="16" height="16"/>
	</g>
</g>
<g>
	<g>
		<rect x="344" y="352" width="16" height="16"/>
	</g>
</g>
<g>
	<g>
		<rect x="160" y="384" width="224" height="16"/>
	</g>
</g>
<g>
	<g>
		<rect x="128" y="416" width="288" height="16"/>
	</g>
</g>
<g>
	<g>
		<rect x="176" y="96" width="192" height="16"/>
	</g>
</g>
<g>
</g>
<g>
</g>
<g>
</g>
<g>
</g>
<g>
</g>
<g>
</g>
<g>
</g>
<g>
</g>
<g>
</g>
<g>
</g>
<g>
</g>
<g>
</g>
<g>
</g>
<g>
</g>
<g>
</g>
</svg>
