<?xml version="1.0" encoding="iso-8859-1"?>
<!-- Generator: Adobe Illustrator 19.0.0, SVG Export Plug-In . SVG Version: 6.00 Build 0)  -->
<svg version="1.1" id="Capa_1" xmlns="http://www.w3.org/2000/svg" xmlns:xlink="http://www.w3.org/1999/xlink" x="0px" y="0px"
	 viewBox="0 0 480.003 480.003" style="enable-background:new 0 0 480.003 480.003;" xml:space="preserve">
<g>
	<g>
		<path d="M477.658,466.346l-29.656-29.656V280.002c0-19.312-13.768-35.472-32-39.192V136.002v-16v-16c0-22.056-17.944-40-40-40h-32
			h-16h-24v-24c0-22.056-17.944-40-40-40h-160c-22.056,0-40,17.944-40,40v60.688l-29.656,29.656
			c-2.288,2.288-2.976,5.728-1.736,8.72c1.24,2.992,4.16,4.936,7.392,4.936h88v56h-56c-22.056,0-40,17.944-40,40V348.69
			L2.346,378.346c-2.288,2.288-2.976,5.728-1.736,8.72c1.24,2.992,4.16,4.936,7.392,4.936h168v48c0,22.056,17.944,40,40,40h256
			c3.232,0,6.152-1.944,7.392-4.936S479.946,468.633,477.658,466.346z M304.002,104.002v-24h72c13.232,0,24,10.768,24,24v136h-128
			c0-22.056-17.944-40-40-40h-88v-56h120C286.058,144.002,304.002,126.058,304.002,104.002z M400.002,256.002v8
			c0,13.232-10.768,24-24,24h-104v-32H400.002z M144.002,128.002v-24c0-13.232,10.768-24,24-24h120v24c0,13.232-10.768,24-24,24
			H144.002z M59.314,128.002l18.344-18.344c1.504-1.496,2.344-3.528,2.344-5.656v-64c0-13.232,10.768-24,24-24h160
			c13.232,0,24,10.768,24,24v24h-120c-22.056,0-40,17.944-40,40v24H59.314z M176.002,376.002H27.314l18.344-18.344
			c1.504-1.496,2.344-3.528,2.344-5.656v-112c0-13.232,10.768-24,24-24h56v44.688l-29.656,29.656
			c-2.288,2.288-2.976,5.728-1.736,8.72c1.24,2.992,4.16,4.936,7.392,4.936h72V376.002z M176.002,280.002v8h-52.688l18.344-18.344
			c1.504-1.496,2.344-3.528,2.344-5.656v-48h88c13.232,0,24,10.768,24,24h-40C193.946,240.002,176.002,257.945,176.002,280.002z
			 M192.002,288.002v-8c0-13.232,10.768-24,24-24h40v32H192.002z M256.002,304.002v48c0,13.232-10.768,24-24,24h-40v-72H256.002z
			 M216.002,464.002c-13.232,0-24-10.768-24-24v-48h40c22.056,0,40-17.944,40-40v-48h104c22.056,0,40-17.944,40-40v-6.528
			c9.288,3.312,16,12.112,16,22.528v160c0,2.128,0.84,4.16,2.344,5.656l18.344,18.344H216.002z"/>
	</g>
</g>
<g>
	<g>
		<path d="M443.026,117.322c-3.424,1.776-7.144,2.672-11.248,2.68l0.232,16c6.384-0.008,12.744-1.552,18.376-4.48L443.026,117.322z"
			/>
	</g>
</g>
<g>
	<g>
		<path d="M332.314,29.922c-2.816,5.56-4.312,11.816-4.312,18.08v0.496l16-0.496c0-3.824,0.864-7.472,2.584-10.84L332.314,29.922z"
			/>
	</g>
</g>
<g>
	<g>
		<path d="M443.394,9.642l-4.56,15.352c3.712,1.104,7.144,3.12,9.92,5.832L459.93,19.37C455.298,14.858,449.578,11.49,443.394,9.642
			z"/>
	</g>
</g>
<g>
	<g>
		<path d="M362.682,8.354c-6.408,0.848-12.584,3.288-17.856,7.048l9.28,13.032c3.16-2.256,6.856-3.704,10.696-4.224L362.682,8.354z"
			/>
	</g>
</g>
<g>
	<g>
		<path d="M455.826,99.002c-0.488,3.832-1.912,7.544-4.136,10.744l13.128,9.144c3.704-5.312,6.088-11.504,6.88-17.92L455.826,99.002
			z"/>
	</g>
</g>
<g>
	<g>
		<rect x="456.002" y="68.978" width="16" height="15.504"/>
	</g>
</g>
<g>
	<g>
		<rect x="410.242" y="8.002" width="15.504" height="16"/>
	</g>
</g>
<g>
	<g>
		<path d="M470.066,35.682l-15.224,4.92c0.768,2.384,1.16,4.872,1.16,7.4v5.48h16v-5.48
			C472.002,43.81,471.346,39.658,470.066,35.682z"/>
	</g>
</g>
<g>
	<g>
		<rect x="379.202" y="8.002" width="15.504" height="16"/>
	</g>
</g>
<g>
	<g>
		<rect x="296.002" y="328.002" width="112" height="16"/>
	</g>
</g>
<g>
	<g>
		<rect x="296.002" y="360.002" width="112" height="16"/>
	</g>
</g>
<g>
	<g>
		<rect x="280.002" y="392.002" width="128" height="16"/>
	</g>
</g>
<g>
	<g>
		<rect x="216.002" y="424.002" width="192" height="16"/>
	</g>
</g>
<g>
	<g>
		<rect x="328.002" y="104.002" width="16" height="16"/>
	</g>
</g>
<g>
	<g>
		<rect x="360.002" y="104.002" width="16" height="16"/>
	</g>
</g>
<g>
	<g>
		<rect x="328.002" y="136.002" width="16" height="16"/>
	</g>
</g>
<g>
	<g>
		<rect x="360.002" y="136.002" width="16" height="16"/>
	</g>
</g>
<g>
	<g>
		<rect x="328.002" y="168.002" width="16" height="16"/>
	</g>
</g>
<g>
	<g>
		<rect x="360.002" y="168.002" width="16" height="16"/>
	</g>
</g>
<g>
	<g>
		<rect x="328.002" y="200.002" width="16" height="16"/>
	</g>
</g>
<g>
	<g>
		<rect x="360.002" y="200.002" width="16" height="16"/>
	</g>
</g>
<g>
</g>
<g>
</g>
<g>
</g>
<g>
</g>
<g>
</g>
<g>
</g>
<g>
</g>
<g>
</g>
<g>
</g>
<g>
</g>
<g>
</g>
<g>
</g>
<g>
</g>
<g>
</g>
<g>
</g>
</svg>
