<?xml version="1.0" encoding="iso-8859-1"?>
<!-- Generator: Adobe Illustrator 19.0.0, SVG Export Plug-In . SVG Version: 6.00 Build 0)  -->
<svg version="1.1" id="Capa_1" xmlns="http://www.w3.org/2000/svg" xmlns:xlink="http://www.w3.org/1999/xlink" x="0px" y="0px"
	 viewBox="0 0 480 480" style="enable-background:new 0 0 480 480;" xml:space="preserve">
<g>
	<g>
		<path d="M412.792,372.032l-57.256-3.816L331.312,344H384c22.056,0,40-17.944,40-40V184h32c2.912,0,5.584-1.576,7-4.12
			c1.416-2.544,1.328-5.656-0.208-8.12l-40-64C421.32,105.424,418.76,104,416,104h-16h-80h-24.64c-3.904-27.096-27.208-48-55.36-48
			s-51.456,20.904-55.36,48H80H64c-2.76,0-5.32,1.424-6.784,3.76l-40,64c-1.536,2.464-1.624,5.576-0.208,8.12S21.088,184,24,184h32
			v120c0,22.056,17.944,40,40,40h55.36l-19.392,24.24l-64.456,4.032C29.656,374.632,0,406.2,0,444.128V480h16v-35.872
			c0-29.504,23.064-54.048,52.504-55.888l64.752-4.048l53.536,45.888c1.504,1.28,3.36,1.92,5.208,1.92
			c2.048,0,4.104-0.792,5.656-2.344l9.096-9.096l7.776,11.672l-21.392,35.656c-0.744,1.24-1.136,2.664-1.136,4.112v8h16v-5.784
			l22.856-38.096c1.592-2.656,1.512-5.984-0.2-8.552l-12.36-18.544L240,387.312l21.704,21.704l-12.36,18.544
			c-1.712,2.568-1.792,5.904-0.2,8.552L272,474.216V480h16v-8c0-1.448-0.392-2.872-1.144-4.12l-21.392-35.656l7.776-11.672
			l9.096,9.096c1.56,1.56,3.608,2.352,5.664,2.352c1.68,0,3.368-0.528,4.8-1.6l61.624-46.224l57.296,3.816
			c29.32,1.96,52.28,26.504,52.28,55.88V480h16v-36.128C480,406.104,450.48,374.544,412.792,372.032z M400,120h11.568l30,48h-77.136
			l-30-48H400z M328,139.896l25.216,40.344c1.464,2.336,4.024,3.76,6.784,3.76h48v120c0,13.232-10.768,24-24,24h-56V139.896z
			 M240,72c19.312,0,35.472,13.768,39.192,32h-78.384C204.528,85.768,220.688,72,240,72z M38.432,168l30-48H80h225.568l-30,48
			H38.432z M96,328c-13.232,0-24-10.768-24-24V184h208c2.76,0,5.32-1.424,6.784-3.76L312,139.896V328H96z M202.352,402.344
			l-10.76,10.76l-44.504-38.152l22.936-28.672l56.824,31.568L202.352,402.344z M198.872,344h82.256L240,366.848L198.872,344z
			 M288.752,413.44l-11.096-11.096l-24.496-24.496l57.456-31.92l29.208,29.208L288.752,413.44z"/>
	</g>
</g>
<g>
	<g>
		<rect x="232" width="16" height="40"/>
	</g>
</g>
<g>
	<g>
		<rect x="291.997" y="44.005" transform="matrix(0.7071 -0.7071 0.7071 0.7071 54.6076 235.8441)" width="39.992" height="16"/>
	</g>
</g>
<g>
	<g>
		<rect x="159.994" y="32.002" transform="matrix(0.7071 -0.7071 0.7071 0.7071 12.4363 134.0193)" width="16" height="39.992"/>
	</g>
</g>
<g>
	<g>
		<path d="M232,256h-64c-4.416,0-8,3.584-8,8c0,22.056,17.944,40,40,40c22.056,0,40-17.944,40-40C240,259.584,236.416,256,232,256z
			 M200,288c-10.432,0-19.328-6.688-22.632-16h45.256C219.328,281.312,210.432,288,200,288z"/>
	</g>
</g>
<g>
	<g>
		<circle cx="168" cy="224" r="8"/>
	</g>
</g>
<g>
	<g>
		<circle cx="232" cy="224" r="8"/>
	</g>
</g>
<g>
</g>
<g>
</g>
<g>
</g>
<g>
</g>
<g>
</g>
<g>
</g>
<g>
</g>
<g>
</g>
<g>
</g>
<g>
</g>
<g>
</g>
<g>
</g>
<g>
</g>
<g>
</g>
<g>
</g>
</svg>
