<?xml version="1.0" encoding="iso-8859-1"?>
<!-- Generator: Adobe Illustrator 19.0.0, SVG Export Plug-In . SVG Version: 6.00 Build 0)  -->
<svg version="1.1" id="Capa_1" xmlns="http://www.w3.org/2000/svg" xmlns:xlink="http://www.w3.org/1999/xlink" x="0px" y="0px"
	 viewBox="0 0 480 480" style="enable-background:new 0 0 480 480;" xml:space="preserve">
<g>
	<g>
		<path d="M412.792,372.032l-57.264-3.816l-29.136-29.136c5.8-4.384,9.608-11.264,9.608-19.08c0-6.168-2.408-11.744-6.24-16
			c3.84-4.256,6.24-9.832,6.24-16c0-6.728-2.8-12.792-7.272-17.152C358.504,245.12,376,207.56,376,168c0-74.992-61.008-136-136-136
			S104,93.008,104,168c0,39.56,17.496,77.12,47.272,102.848C146.8,275.208,144,281.272,144,288c0,6.168,2.408,11.744,6.24,16
			c-3.84,4.256-6.24,9.832-6.24,16c0,8.288,4.224,15.6,10.624,19.912l-22.656,28.32l-64.456,4.032
			C29.656,374.632,0,406.192,0,444.128V480h16v-35.872c0-29.504,23.064-54.048,52.504-55.888l64.752-4.048l53.528,45.88
			C188.296,431.36,190.152,432,192,432c2.048,0,4.104-0.792,5.656-2.344l9.096-9.096l7.776,11.672l-21.392,35.656
			c-0.744,1.24-1.136,2.656-1.136,4.112v8h16v-5.784l22.856-38.104c1.592-2.648,1.512-5.984-0.2-8.552l-12.36-18.544L240,387.312
			l21.704,21.704l-12.36,18.544c-1.712,2.568-1.792,5.904-0.2,8.552L272,474.216V480h16v-8c0-1.456-0.392-2.872-1.144-4.12
			l-21.392-35.656l7.776-11.672l9.096,9.096c1.56,1.56,3.608,2.352,5.664,2.352c1.68,0,3.368-0.52,4.8-1.6l61.624-46.216
			L411.728,388C441.04,389.952,464,414.496,464,443.872V480h16v-36.128C480,406.104,450.48,374.544,412.792,372.032z M120,168
			c0-66.168,53.832-120,120-120s120,53.832,120,120c0,37.672-17.952,73.344-48.168,96H272v-52.248l28.016-23.352
			C312.72,177.816,320,162.264,320,145.744C320,123.12,301.68,104,280,104c-7.104,0-13.912,1.944-20.024,5.576
			c-12.312-7.136-27.624-7.136-39.936,0C213.92,105.944,207.104,104,200,104c-21.68,0-40,19.12-40,41.744
			c0,16.52,7.28,32.072,19.984,42.656L208,211.752V264h-39.832C137.952,241.344,120,205.672,120,168z M312,296H168
			c-4.408,0-8-3.584-8-8c0-4.416,3.592-8,8-8h143.976l0.08,0.008c4.384,0.032,7.944,3.6,7.944,7.992
			C320,292.416,316.408,296,312,296z M320,320c0,4.416-3.592,8-8,8H168c-4.408,0-8-3.584-8-8c0-4.416,3.592-8,8-8h144
			C316.408,312,320,315.584,320,320z M214.976,175.024c1.464,1.176,3.248,1.776,5.024,1.776s3.56-0.592,5.024-1.776
			c9.52-7.696,14.976-19,14.976-31.024c0-1.848-0.176-3.672-0.424-5.48c-0.072-0.52-0.168-1.024-0.264-1.544
			c-0.248-1.384-0.576-2.736-0.968-4.08c-0.128-0.44-0.24-0.888-0.384-1.328c-0.568-1.704-1.24-3.376-2.032-4.984
			c-0.136-0.28-0.312-0.544-0.456-0.824c-0.704-1.352-1.488-2.656-2.352-3.92c-0.144-0.208-0.248-0.448-0.392-0.656
			c4.68-1.56,9.864-1.56,14.544,0c-0.144,0.208-0.248,0.448-0.392,0.656c-0.856,1.264-1.648,2.576-2.352,3.92
			c-0.144,0.28-0.32,0.544-0.456,0.824c-0.792,1.616-1.464,3.28-2.032,4.984c-0.144,0.44-0.256,0.888-0.384,1.328
			c-0.392,1.336-0.72,2.696-0.968,4.08c-0.096,0.512-0.192,1.024-0.264,1.544c-0.248,1.808-0.424,3.632-0.424,5.48
			c0,12.024,5.456,23.328,14.976,31.024c1.464,1.176,3.248,1.776,5.024,1.776s3.56-0.592,5.024-1.776
			c9.52-7.696,14.976-19,14.976-31.024c0-1.848-0.176-3.672-0.424-5.48c-0.072-0.52-0.168-1.024-0.264-1.544
			c-0.248-1.376-0.576-2.736-0.968-4.072c-0.128-0.448-0.24-0.896-0.384-1.336c-0.568-1.704-1.232-3.368-2.024-4.976
			c-0.152-0.304-0.336-0.584-0.488-0.888c-0.688-1.32-1.456-2.592-2.296-3.832c-0.152-0.224-0.264-0.48-0.424-0.704
			C275.064,120.4,277.504,120,280,120c12.784,0,24,12.032,24,25.744c0,11.768-5.184,22.832-14.224,30.36l-30.896,25.752
			c-1.824,1.52-2.88,3.768-2.88,6.144v56h-32v-56c0-2.376-1.056-4.624-2.88-6.152l-30.896-25.752
			c-9.04-7.528-14.224-18.592-14.224-30.352C176,132.032,187.216,120,200,120c2.488,0,4.928,0.4,7.272,1.168
			c-0.16,0.224-0.264,0.48-0.424,0.704c-0.84,1.24-1.6,2.512-2.296,3.832c-0.16,0.296-0.344,0.584-0.488,0.888
			c-0.792,1.608-1.456,3.272-2.024,4.976c-0.144,0.44-0.256,0.888-0.384,1.336c-0.392,1.336-0.72,2.696-0.968,4.072
			c-0.096,0.512-0.192,1.024-0.264,1.544c-0.248,1.808-0.424,3.632-0.424,5.48C200,156.024,205.456,167.328,214.976,175.024z
			 M216,144c0-1.592,0.224-3.152,0.536-4.688c0.08-0.376,0.16-0.752,0.256-1.12c0.384-1.496,0.872-2.96,1.544-4.352
			c0.056-0.12,0.144-0.232,0.2-0.36c0.408-0.816,0.96-1.552,1.464-2.32c0.504,0.768,1.056,1.504,1.464,2.32
			c0.064,0.128,0.144,0.24,0.2,0.36c0.672,1.392,1.16,2.856,1.544,4.352c0.096,0.368,0.176,0.744,0.256,1.12
			c0.312,1.536,0.536,3.096,0.536,4.688s-0.224,3.152-0.536,4.688c-0.08,0.376-0.16,0.752-0.256,1.12
			c-0.384,1.496-0.872,2.96-1.544,4.352c-0.064,0.128-0.144,0.24-0.208,0.36c-0.408,0.808-0.96,1.544-1.464,2.312
			c-0.504-0.768-1.056-1.504-1.464-2.312c-0.064-0.128-0.144-0.24-0.208-0.36c-0.672-1.392-1.16-2.856-1.544-4.352
			c-0.096-0.368-0.176-0.744-0.256-1.12C216.224,147.152,216,145.592,216,144z M256,144c0-1.592,0.224-3.152,0.536-4.688
			c0.08-0.376,0.16-0.752,0.256-1.12c0.384-1.496,0.872-2.96,1.544-4.352c0.056-0.12,0.144-0.232,0.2-0.36
			c0.408-0.816,0.96-1.552,1.464-2.32c0.504,0.768,1.056,1.504,1.464,2.32c0.064,0.128,0.144,0.24,0.2,0.36
			c0.672,1.392,1.16,2.856,1.544,4.352c0.096,0.368,0.176,0.744,0.256,1.12c0.312,1.536,0.536,3.096,0.536,4.688
			s-0.224,3.152-0.536,4.688c-0.08,0.376-0.16,0.752-0.256,1.12c-0.384,1.496-0.872,2.96-1.544,4.352
			c-0.064,0.128-0.144,0.24-0.208,0.36c-0.408,0.808-0.96,1.544-1.464,2.312c-0.504-0.768-1.056-1.504-1.464-2.312
			c-0.064-0.128-0.144-0.24-0.208-0.36c-0.672-1.392-1.16-2.856-1.544-4.352c-0.096-0.368-0.176-0.744-0.256-1.12
			C256.224,147.152,256,145.592,256,144z M191.584,413.104L147.08,374.96l22.944-28.688l56.824,31.568L191.584,413.104z
			 M198.872,344h82.256L240,366.848L198.872,344z M288.752,413.44l-11.096-11.096l-24.496-24.496l57.456-31.92l29.208,29.208
			L288.752,413.44z"/>
	</g>
</g>
<g>
	<g>
		<rect x="364.687" y="56.001" transform="matrix(0.7071 -0.7071 0.7071 0.7071 64.8726 284.6176)" width="22.624" height="16"/>
	</g>
</g>
<g>
	<g>
		<rect x="368.028" y="260.67" transform="matrix(0.7071 -0.7071 0.7071 0.7071 -82.184 345.5535)" width="16" height="22.624"/>
	</g>
</g>
<g>
	<g>
		<rect x="400" y="160" width="16" height="16"/>
	</g>
</g>
<g>
	<g>
		<rect x="95.996" y="52.692" transform="matrix(0.7071 -0.7071 0.7071 0.7071 -14.798 92.2826)" width="16" height="22.624"/>
	</g>
</g>
<g>
	<g>
		<rect x="92.705" y="263.993" transform="matrix(0.7071 -0.7071 0.7071 0.7071 -161.8621 153.2158)" width="22.624" height="16"/>
	</g>
</g>
<g>
	<g>
		<rect x="64" y="160" width="16" height="16"/>
	</g>
</g>
<g>
	<g>
		<rect x="232" width="16" height="16"/>
	</g>
</g>
<g>
</g>
<g>
</g>
<g>
</g>
<g>
</g>
<g>
</g>
<g>
</g>
<g>
</g>
<g>
</g>
<g>
</g>
<g>
</g>
<g>
</g>
<g>
</g>
<g>
</g>
<g>
</g>
<g>
</g>
</svg>
