<?xml version="1.0" encoding="iso-8859-1"?>
<!-- Generator: Adobe Illustrator 19.0.0, SVG Export Plug-In . SVG Version: 6.00 Build 0)  -->
<svg version="1.1" id="Capa_1" xmlns="http://www.w3.org/2000/svg" xmlns:xlink="http://www.w3.org/1999/xlink" x="0px" y="0px"
	 viewBox="0 0 480 480" style="enable-background:new 0 0 480 480;" xml:space="preserve">
<g>
	<g>
		<path d="M320,360c0-11.832-2.92-22.976-8-32.832V208c0-4.424-3.584-8-8-8H88c-4.416,0-8,3.576-8,8v16H40
			c-22.056,0-40,17.944-40,40v128c0,22.056,17.944,40,40,40h40v40c0,4.424,3.584,8,8,8h104h112c4.176,0,7.656-3.216,7.976-7.384
			l8-104c0.016-0.208-0.032-0.408-0.032-0.616H320V360z M176.056,368c0,0.208-0.048,0.408-0.032,0.616L183.36,464H96v-40
			c0-4.424-3.584-8-8-8H40c-13.232,0-24-10.768-24-24V264c0-13.232,10.768-24,24-24h48c4.416,0,8-3.576,8-8v-16h200v90.488
			C283.248,295.032,266.448,288,248,288c-39.696,0-72,32.296-72,72v8H176.056z M296.592,464h-97.184l-6.352-82.52l19.36,9.68
			c2.248,1.128,4.904,1.128,7.16,0L248,376.944l28.424,14.208c2.248,1.128,4.904,1.128,7.16,0l19.36-9.68L296.592,464z M304,363.056
			l-24,12l-28.424-14.208c-2.248-1.128-4.904-1.128-7.16,0L216,375.056l-24-12V360c0-30.872,25.12-56,56-56s56,25.128,56,56V363.056
			z"/>
	</g>
</g>
<g>
	<g>
		<path d="M88,256H40c-4.416,0-8,3.576-8,8v128c0,4.424,3.584,8,8,8h48c4.416,0,8-3.576,8-8V264C96,259.576,92.416,256,88,256z
			 M80,384H48V272h32V384z"/>
	</g>
</g>
<g>
	<g>
		<path d="M480,360c0-39.704-32.304-72-72-72c-39.696,0-72,32.296-72,72v8h0.056c0,0.208-0.048,0.408-0.032,0.616l8,104
			c0.32,4.168,3.8,7.384,7.976,7.384h112c4.176,0,7.656-3.216,7.976-7.384l8-104c0.016-0.208-0.032-0.408-0.032-0.616H480V360z
			 M456.592,464h-97.184l-6.352-82.52l19.36,9.68c2.248,1.128,4.904,1.128,7.16,0L408,376.944l28.424,14.208
			c2.248,1.128,4.904,1.128,7.16,0l19.36-9.68L456.592,464z M464,363.056l-24,12l-28.424-14.208c-2.248-1.128-4.904-1.128-7.16,0
			L376,375.056l-24-12V360c0-30.872,25.12-56,56-56s56,25.128,56,56V363.056z"/>
	</g>
</g>
<g>
	<g>
		<rect x="400" y="320" width="16" height="16"/>
	</g>
</g>
<g>
	<g>
		<rect x="368" y="336" width="16" height="16"/>
	</g>
</g>
<g>
	<g>
		<rect x="432" y="336" width="16" height="16"/>
	</g>
</g>
<g>
	<g>
		<rect x="240" y="320" width="16" height="16"/>
	</g>
</g>
<g>
	<g>
		<rect x="208" y="336" width="16" height="16"/>
	</g>
</g>
<g>
	<g>
		<rect x="272" y="336" width="16" height="16"/>
	</g>
</g>
<g>
	<g>
		<path d="M424,0v40c0,39.704-32.304,72-72,72h-96c-26.472,0-48,21.528-48,48v24h16v-24c0-17.648,14.352-32,32-32h96
			c48.52,0,88-39.48,88-88V0H424z"/>
	</g>
</g>
<g>
	<g>
		<path d="M384,0v40c0,17.648-14.352,32-32,32h-96c-48.52,0-88,39.48-88,88v24h16v-24c0-39.704,32.304-72,72-72h96
			c26.472,0,48-21.528,48-48V0H384z"/>
	</g>
</g>
<g>
	<g>
		<path d="M344,0v32h-88c-70.576,0-128,57.424-128,128v24h16v-24c0-61.76,50.24-112,112-112h96c4.416,0,8-3.576,8-8V0H344z"/>
	</g>
</g>
<g>
	<g>
		<path d="M464,0v40c0,61.76-50.24,112-112,112h-96c-4.416,0-8,3.576-8,8v24h16v-16h88c70.576,0,128-57.424,128-128V0H464z"/>
	</g>
</g>
<g>
</g>
<g>
</g>
<g>
</g>
<g>
</g>
<g>
</g>
<g>
</g>
<g>
</g>
<g>
</g>
<g>
</g>
<g>
</g>
<g>
</g>
<g>
</g>
<g>
</g>
<g>
</g>
<g>
</g>
</svg>
