<?xml version="1.0" encoding="iso-8859-1"?>
<!-- Generator: Adobe Illustrator 19.0.0, SVG Export Plug-In . SVG Version: 6.00 Build 0)  -->
<svg version="1.1" id="Capa_1" xmlns="http://www.w3.org/2000/svg" xmlns:xlink="http://www.w3.org/1999/xlink" x="0px" y="0px"
	 viewBox="0 0 496 496" style="enable-background:new 0 0 496 496;" xml:space="preserve">
<g>
	<g>
		<path d="M489.328,326.256c-0.576-13.048-7.344-24.32-17.36-31.2L470.272,256H488v-16h-18.424l-3.496-80.392
			c-0.088-2.008-0.28-3.984-0.568-5.928c-0.056-0.4-0.16-0.792-0.232-1.192c-0.256-1.56-0.544-3.104-0.928-4.608
			c-0.096-0.392-0.232-0.768-0.336-1.152c-0.416-1.52-0.864-3.024-1.392-4.488c-0.12-0.32-0.264-0.632-0.384-0.952
			c-0.584-1.528-1.216-3.032-1.928-4.496c-0.112-0.232-0.24-0.448-0.352-0.68c-0.784-1.56-1.624-3.08-2.536-4.56
			c-0.072-0.12-0.152-0.232-0.224-0.352c-3.152-5.024-7.048-9.512-11.536-13.336l0.24-5.568C446.888,89.704,465.376,72,488,72V56
			c-7.872,0-15.368,1.56-22.224,4.384C462.864,30.768,438.12,8,408,8s-54.864,22.768-57.776,52.384C343.368,57.56,335.872,56,328,56
			s-15.368,1.56-22.224,4.384C302.864,30.768,278.12,8,248,8s-54.864,22.768-57.776,52.384C183.368,57.56,175.872,56,168,56
			s-15.368,1.56-22.224,4.384C142.864,30.768,118.12,8,88,8S33.136,30.768,30.224,60.384C23.368,57.56,15.872,56,8,56v16
			c22.624,0,41.112,17.704,42.096,40.304l0.24,5.568c-4.488,3.824-8.384,8.312-11.536,13.336c-0.072,0.12-0.152,0.232-0.224,0.352
			c-0.912,1.48-1.752,3-2.536,4.56c-0.112,0.224-0.24,0.448-0.352,0.68c-0.704,1.464-1.336,2.968-1.928,4.496
			c-0.12,0.32-0.264,0.632-0.384,0.952c-0.528,1.456-0.976,2.952-1.392,4.472c-0.104,0.384-0.24,0.76-0.336,1.152
			c-0.376,1.512-0.664,3.056-0.928,4.608c-0.064,0.4-0.168,0.792-0.232,1.192c-0.28,1.944-0.48,3.92-0.568,5.928L26.424,240H8v16
			h17.728l-1.696,39.056c-10.016,6.872-16.792,18.144-17.36,31.2l-6.664,153.4c-0.096,2.176,0.704,4.304,2.216,5.88
			C3.728,487.112,5.816,488,8,488h160h160h160c2.184,0,4.272-0.888,5.776-2.472c1.512-1.576,2.312-3.696,2.216-5.88L489.328,326.256
			z M445.744,143.544c0.296,0.592,0.576,1.192,0.84,1.792c0.872,2.016,1.632,4.104,2.184,6.28c0.112,0.424,0.184,0.856,0.28,1.28
			c0.536,2.4,0.936,4.856,1.048,7.4l5.576,128.312c-2.064-0.32-4.152-0.608-6.312-0.608h-82.72c-2.16,0-4.248,0.288-6.312,0.616
			l5.576-128.312c0.112-2.544,0.512-5,1.048-7.4c0.096-0.424,0.168-0.864,0.28-1.28c0.56-2.176,1.312-4.264,2.184-6.28
			c0.264-0.608,0.544-1.2,0.84-1.792c0.912-1.864,1.936-3.656,3.104-5.352c0.448-0.648,0.968-1.248,1.456-1.872
			c0.856-1.104,1.776-2.152,2.744-3.16c0.784-0.816,1.568-1.624,2.416-2.384C387.44,124.112,397.216,120,408,120
			s20.56,4.112,28.024,10.776c0.848,0.76,1.64,1.568,2.416,2.384c0.96,1.008,1.88,2.064,2.744,3.16
			c0.488,0.624,1.008,1.224,1.456,1.872C443.808,139.88,444.832,141.68,445.744,143.544z M365.904,64.304
			C366.888,41.704,385.376,24,408,24c22.624,0,41.112,17.704,42.096,40.304l0.24,5.568c-11.112,9.456-18.592,23.04-20.112,38.512
			C423.368,105.56,415.872,104,408,104s-15.368,1.56-22.224,4.384c-1.528-15.472-9-29.056-20.112-38.512L365.904,64.304z M328,72
			c22.624,0,41.112,17.704,42.096,40.304l0.24,5.568c-4.488,3.824-8.384,8.312-11.536,13.336c-0.072,0.12-0.152,0.232-0.224,0.352
			c-0.912,1.48-1.752,3-2.536,4.56c-0.112,0.224-0.24,0.448-0.352,0.68c-0.704,1.464-1.336,2.968-1.928,4.496
			c-0.12,0.32-0.264,0.632-0.384,0.952c-0.528,1.464-0.976,2.968-1.392,4.488c-0.104,0.384-0.24,0.76-0.336,1.152
			c-0.376,1.512-0.664,3.056-0.928,4.608c-0.064,0.4-0.168,0.792-0.232,1.192c-0.28,1.944-0.48,3.92-0.568,5.928L346.424,240
			h-36.848l-3.496-80.392c-0.088-2.008-0.28-3.984-0.568-5.928c-0.056-0.4-0.16-0.792-0.232-1.192
			c-0.256-1.56-0.544-3.104-0.928-4.608c-0.096-0.392-0.232-0.768-0.336-1.152c-0.416-1.52-0.864-3.024-1.392-4.488
			c-0.12-0.32-0.264-0.632-0.384-0.952c-0.584-1.528-1.216-3.032-1.928-4.496c-0.112-0.232-0.24-0.448-0.352-0.68
			c-0.784-1.56-1.624-3.08-2.536-4.56c-0.072-0.12-0.152-0.232-0.224-0.352c-3.152-5.024-7.048-9.512-11.536-13.336l0.24-5.568
			C286.888,89.704,305.376,72,328,72z M295.672,288.608c-2.064-0.32-4.152-0.608-6.312-0.608h-82.72
			c-2.16,0-4.248,0.288-6.312,0.616l5.576-128.312c0.112-2.544,0.512-5,1.048-7.4c0.096-0.424,0.168-0.864,0.28-1.28
			c0.56-2.176,1.312-4.264,2.184-6.28c0.264-0.608,0.544-1.2,0.84-1.792c0.912-1.864,1.936-3.656,3.104-5.352
			c0.448-0.648,0.968-1.248,1.456-1.872c0.856-1.104,1.776-2.152,2.744-3.16c0.784-0.816,1.568-1.624,2.416-2.384
			C227.44,124.112,237.216,120,248,120c10.784,0,20.56,4.112,28.024,10.776c0.848,0.76,1.64,1.568,2.416,2.384
			c0.96,1.008,1.88,2.064,2.744,3.16c0.488,0.624,1.008,1.224,1.456,1.872c1.168,1.688,2.192,3.488,3.104,5.352
			c0.296,0.592,0.576,1.192,0.84,1.792c0.872,2.016,1.632,4.104,2.184,6.28c0.112,0.424,0.184,0.856,0.28,1.28
			c0.536,2.4,0.936,4.856,1.048,7.4L295.672,288.608z M205.904,64.304C206.888,41.704,225.376,24,248,24
			c22.624,0,41.112,17.704,42.096,40.304l0.24,5.568c-11.112,9.456-18.592,23.04-20.112,38.512C263.368,105.56,255.872,104,248,104
			s-15.368,1.56-22.224,4.384c-1.528-15.472-9-29.056-20.112-38.512L205.904,64.304z M168,72c22.624,0,41.112,17.704,42.096,40.304
			l0.24,5.568c-4.488,3.824-8.384,8.312-11.536,13.336c-0.072,0.12-0.152,0.232-0.224,0.352c-0.912,1.48-1.752,3-2.536,4.56
			c-0.112,0.224-0.24,0.448-0.352,0.68c-0.704,1.464-1.336,2.968-1.928,4.496c-0.12,0.32-0.264,0.632-0.384,0.952
			c-0.528,1.464-0.976,2.968-1.392,4.488c-0.104,0.384-0.24,0.76-0.336,1.152c-0.376,1.512-0.664,3.056-0.928,4.608
			c-0.064,0.4-0.168,0.792-0.232,1.192c-0.28,1.944-0.48,3.92-0.568,5.928L186.424,240h-36.848l-3.496-80.392
			c-0.088-2.008-0.28-3.984-0.568-5.928c-0.056-0.4-0.16-0.792-0.232-1.192c-0.256-1.56-0.544-3.104-0.928-4.608
			c-0.096-0.392-0.232-0.768-0.336-1.152c-0.416-1.52-0.864-3.024-1.392-4.488c-0.12-0.32-0.264-0.632-0.384-0.952
			c-0.584-1.528-1.216-3.032-1.928-4.496c-0.112-0.232-0.24-0.448-0.352-0.68c-0.784-1.56-1.624-3.08-2.536-4.56
			c-0.072-0.12-0.152-0.232-0.224-0.352c-3.152-5.024-7.048-9.512-11.536-13.336l0.24-5.568C126.888,89.704,145.376,72,168,72z
			 M45.664,69.872l0.24-5.568C46.888,41.704,65.376,24,88,24s41.112,17.704,42.096,40.304l0.24,5.568
			c-11.112,9.456-18.592,23.04-20.112,38.512C103.368,105.56,95.872,104,88,104s-15.368,1.56-22.224,4.384
			C64.256,92.904,56.776,79.328,45.664,69.872z M45.904,160.304c0.112-2.544,0.512-5,1.048-7.4c0.096-0.424,0.168-0.864,0.28-1.28
			c0.56-2.176,1.312-4.264,2.184-6.28c0.264-0.608,0.544-1.2,0.84-1.792c0.912-1.864,1.936-3.656,3.104-5.352
			c0.448-0.648,0.968-1.248,1.456-1.872c0.856-1.104,1.776-2.152,2.744-3.16c0.784-0.816,1.568-1.624,2.416-2.384
			C67.44,124.112,77.216,120,88,120s20.56,4.112,28.024,10.776c0.848,0.76,1.64,1.568,2.416,2.384c0.96,1.008,1.88,2.064,2.744,3.16
			c0.488,0.624,1.008,1.224,1.456,1.872c1.168,1.688,2.192,3.488,3.104,5.352c0.296,0.592,0.576,1.192,0.84,1.792
			c0.872,2.016,1.632,4.104,2.184,6.28c0.112,0.424,0.184,0.856,0.28,1.28c0.536,2.4,0.936,4.856,1.048,7.4l5.576,128.312
			c-2.064-0.32-4.152-0.608-6.312-0.608H46.64c-2.16,0-4.248,0.288-6.312,0.616L45.904,160.304z M16.352,472l5.216-120H48v-16
			H22.264l0.392-9.04C23.224,314.088,33.752,304,46.64,304h82.72c12.888,0,23.416,10.088,23.984,22.96l0.392,9.04H128v16h26.432
			l5.216,120H16.352z M151.968,295.056L150.272,256h35.464l-1.696,39.056c-7.784,5.344-13.576,13.336-16.04,22.768
			C165.536,308.384,159.744,300.392,151.968,295.056z M176.352,472l5.216-120H208v-16h-25.736l0.392-9.04
			c0.56-12.872,11.096-22.96,23.984-22.96h82.72c12.888,0,23.416,10.088,23.984,22.96l0.392,9.04H288v16h26.432l5.216,120H176.352z
			 M311.968,295.056L310.272,256h35.464l-1.696,39.056c-7.784,5.344-13.576,13.336-16.04,22.768
			C325.536,308.384,319.744,300.392,311.968,295.056z M336.352,472l5.216-120H368v-16h-25.736l0.392-9.04
			c0.56-12.872,11.096-22.96,23.984-22.96h82.72c12.888,0,23.416,10.088,23.984,22.96l0.392,9.04H448v16h26.432l5.216,120H336.352z"
			/>
	</g>
</g>
<g>
</g>
<g>
</g>
<g>
</g>
<g>
</g>
<g>
</g>
<g>
</g>
<g>
</g>
<g>
</g>
<g>
</g>
<g>
</g>
<g>
</g>
<g>
</g>
<g>
</g>
<g>
</g>
<g>
</g>
</svg>
