<?xml version="1.0" encoding="iso-8859-1"?>
<!-- Generator: Adobe Illustrator 19.0.0, SVG Export Plug-In . SVG Version: 6.00 Build 0)  -->
<svg version="1.1" id="Capa_1" xmlns="http://www.w3.org/2000/svg" xmlns:xlink="http://www.w3.org/1999/xlink" x="0px" y="0px"
	 viewBox="0 0 480.002 480.002" style="enable-background:new 0 0 480.002 480.002;" xml:space="preserve">
<g>
	<g>
		<path d="M440.001,56.002h-400c-22.056,0-40,17.944-40,40v288c0,22.056,17.944,40,40,40h400c22.056,0,40-17.944,40-40v-288
			C480.001,73.946,462.057,56.002,440.001,56.002z M464.001,384.002c0,13.232-10.768,24-24,24h-400c-13.232,0-24-10.768-24-24v-288
			c0-13.232,10.768-24,24-24h400c13.232,0,24,10.768,24,24V384.002z"/>
	</g>
</g>
<g>
	<g>
		<path d="M247.353,463.882c-4.888,0.16-9.88,0.16-14.824,0l-0.528,15.984c2.656,0.096,5.328,0.136,8,0.136
			c2.648,0,5.28-0.04,7.896-0.136L247.353,463.882z"/>
	</g>
</g>
<g>
	<g>
		<path d="M146.505,443.554l-6.704,14.536c4.848,2.232,9.784,4.312,14.656,6.168l5.704-14.952
			C155.529,447.538,150.985,445.618,146.505,443.554z"/>
	</g>
</g>
<g>
	<g>
		<path d="M276.897,460.978c-4.848,0.8-9.76,1.448-14.72,1.936l1.576,15.92c5.304-0.52,10.552-1.216,15.752-2.08L276.897,460.978z"
			/>
	</g>
</g>
<g>
	<g>
		<path d="M174.177,454.146l-4.704,15.296c5.048,1.544,10.168,2.936,15.336,4.168l3.672-15.576
			C183.657,456.89,178.881,455.594,174.177,454.146z"/>
	</g>
</g>
<g>
	<g>
		<path d="M333.457,443.586c-4.496,2.056-9.056,3.976-13.696,5.76l5.72,14.936c4.952-1.888,9.84-3.952,14.632-6.152L333.457,443.586
			z"/>
	</g>
</g>
<g>
	<g>
		<path d="M203.025,460.946l-2.624,15.784c5.192,0.864,10.448,1.56,15.752,2.088l1.576-15.92
			C212.785,462.402,207.873,461.754,203.025,460.946z"/>
	</g>
</g>
<g>
	<g>
		<path d="M305.753,454.178c-4.704,1.44-9.488,2.736-14.32,3.872l3.672,15.576c5.176-1.216,10.288-2.608,15.336-4.16
			L305.753,454.178z"/>
	</g>
</g>
<g>
	<g>
		<path d="M325.545,15.746l-5.704,14.952c4.64,1.768,9.184,3.688,13.664,5.752l6.704-14.528
			C335.353,19.682,330.425,17.602,325.545,15.746z"/>
	</g>
</g>
<g>
	<g>
		<path d="M154.521,15.722c-4.952,1.888-9.84,3.952-14.632,6.152l6.656,14.544c4.496-2.056,9.056-3.976,13.696-5.76L154.521,15.722z
			"/>
	</g>
</g>
<g>
	<g>
		<path d="M295.185,6.394l-3.672,15.584c4.832,1.136,9.6,2.432,14.304,3.88l4.704-15.296C305.473,9.018,300.353,7.626,295.185,6.394
			z"/>
	</g>
</g>
<g>
	<g>
		<path d="M216.249,1.17c-5.304,0.52-10.552,1.216-15.752,2.08l2.608,15.776c4.848-0.8,9.76-1.448,14.72-1.936L216.249,1.17z"/>
	</g>
</g>
<g>
	<g>
		<path d="M184.897,6.378c-5.176,1.216-10.288,2.608-15.336,4.16l4.688,15.288c4.704-1.44,9.488-2.736,14.32-3.872L184.897,6.378z"
			/>
	</g>
</g>
<g>
	<g>
		<path d="M232.105,0.138l0.544,15.984c4.896-0.16,9.888-0.16,14.824,0l0.528-15.984C242.713-0.046,237.361-0.046,232.105,0.138z"/>
	</g>
</g>
<g>
	<g>
		<path d="M263.849,1.186l-1.576,15.92c4.944,0.496,9.856,1.144,14.704,1.952l2.624-15.784
			C274.409,2.41,269.153,1.714,263.849,1.186z"/>
	</g>
</g>
<g>
	<g>
		<path d="M440.001,112.002c-8.824,0-16-7.176-16-16c0-4.424-3.576-8-8-8h-352c-4.424,0-8,3.576-8,8c0,8.824-7.176,16-16,16
			c-4.424,0-8,3.576-8,8v240c0,4.424,3.576,8,8,8c8.824,0,16,7.176,16,16c0,4.424,3.576,8,8,8h352c4.424,0,8-3.576,8-8
			c0-8.824,7.176-16,16-16c4.424,0,8-3.576,8-8v-240C448.001,115.578,444.425,112.002,440.001,112.002z M208.001,364.69v-4.688
			c0-4.424-3.576-8-8-8h-4.688l10.864-10.864c3.224,5.136,7.552,9.464,12.688,12.68L208.001,364.69z M216.001,320.002
			c0-13.232,10.768-24,24-24s24,10.768,24,24s-10.768,24-24,24S216.001,333.234,216.001,320.002z M219.313,376.002l16.432-16.432
			c1.416,0.152,2.8,0.432,4.256,0.432s2.84-0.28,4.256-0.432l16.432,16.432H219.313z M280.001,352.002c-4.424,0-8,3.576-8,8v4.688
			l-10.864-10.864c5.136-3.224,9.464-7.552,12.68-12.688l10.872,10.864H280.001z M432.001,353.018
			c-11.224,2.896-20.088,11.76-22.984,22.984H288.001v-8h16c3.232,0,6.16-1.944,7.392-4.936c1.24-2.992,0.552-6.432-1.736-8.72
			l-30.088-30.088c0.152-1.416,0.432-2.8,0.432-4.256c0-22.056-17.944-40-40-40c-22.056,0-40,17.944-40,40
			c0,1.456,0.28,2.84,0.432,4.256l-30.088,30.088c-2.288,2.288-2.976,5.728-1.736,8.72c1.232,2.992,4.16,4.936,7.392,4.936h16v8
			H70.985c-2.896-11.224-11.76-20.088-22.984-22.984V126.986c11.224-2.896,20.088-11.76,22.984-22.984h338.032
			c2.896,11.224,11.76,20.088,22.984,22.984V353.018z"/>
	</g>
</g>
<g>
	<g>
		<rect x="144.001" y="208.002" width="192" height="16"/>
	</g>
</g>
<g>
	<g>
		<rect x="176.001" y="248.002" width="48" height="16"/>
	</g>
</g>
<g>
	<g>
		<rect x="256.001" y="248.002" width="48" height="16"/>
	</g>
</g>
<g>
	<g>
		<rect x="88.001" y="336.002" width="64" height="16"/>
	</g>
</g>
<g>
	<g>
		<rect x="328.001" y="336.002" width="64" height="16"/>
	</g>
</g>
<g>
	<g>
		<path d="M409.937,144.242l-64-16c-1.848-0.488-3.816-0.248-5.512,0.6l-32,16c-2.712,1.36-4.424,4.128-4.424,7.16
			s1.712,5.8,4.424,7.16l32,16c1.112,0.552,2.344,0.84,3.576,0.84c0.648,0,1.304-0.08,1.936-0.24l64-16
			c3.568-0.896,6.064-4.088,6.064-7.76S413.505,145.138,409.937,144.242z M344.929,159.522l-15.04-7.52l15.04-7.52l30.088,7.52
			L344.929,159.522z"/>
	</g>
</g>
<g>
	<g>
		<path d="M171.577,144.842l-32-16c-1.704-0.848-3.688-1.088-5.512-0.6l-64,16c-3.568,0.896-6.064,4.088-6.064,7.76
			s2.496,6.864,6.064,7.76l64,16c0.632,0.16,1.288,0.24,1.936,0.24c1.232,0,2.464-0.288,3.576-0.84l32-16
			c2.712-1.36,4.424-4.128,4.424-7.16S174.289,146.202,171.577,144.842z M135.073,159.522l-30.088-7.52l30.088-7.52l15.04,7.52
			L135.073,159.522z"/>
	</g>
</g>
<g>
	<g>
		<rect x="200.001" y="128.002" width="16" height="16"/>
	</g>
</g>
<g>
	<g>
		<rect x="232.001" y="128.002" width="16" height="16"/>
	</g>
</g>
<g>
	<g>
		<rect x="264.001" y="128.002" width="16" height="16"/>
	</g>
</g>
<g>
	<g>
		<rect x="200.001" y="160.002" width="16" height="16"/>
	</g>
</g>
<g>
	<g>
		<rect x="232.001" y="160.002" width="16" height="16"/>
	</g>
</g>
<g>
	<g>
		<rect x="264.001" y="160.002" width="16" height="16"/>
	</g>
</g>
<g>
</g>
<g>
</g>
<g>
</g>
<g>
</g>
<g>
</g>
<g>
</g>
<g>
</g>
<g>
</g>
<g>
</g>
<g>
</g>
<g>
</g>
<g>
</g>
<g>
</g>
<g>
</g>
<g>
</g>
</svg>
