<?xml version="1.0" encoding="iso-8859-1"?>
<!-- Generator: Adobe Illustrator 19.0.0, SVG Export Plug-In . SVG Version: 6.00 Build 0)  -->
<svg version="1.1" id="Capa_1" xmlns="http://www.w3.org/2000/svg" xmlns:xlink="http://www.w3.org/1999/xlink" x="0px" y="0px"
	 viewBox="0 0 480 480" style="enable-background:new 0 0 480 480;" xml:space="preserve">
<g>
	<g>
		<path d="M472,16h-24V8c0-4.416-3.576-8-8-8H240H40c-4.424,0-8,3.584-8,8v8H8c-4.424,0-8,3.584-8,8v416c0,22.056,17.944,40,40,40
			h400c22.056,0,40-17.944,40-40V24C480,19.584,476.424,16,472,16z M248,16h184v416H248V16z M48,16h184v416H48V16z M464,440
			c0,13.232-10.768,24-24,24H40c-13.232,0-24-10.768-24-24V32h16v408c0,4.416,3.576,8,8,8h200h200c4.424,0,8-3.584,8-8V32h16V440z"
			/>
	</g>
</g>
<g>
	<g>
		<path d="M144,40H72c-4.424,0-8,3.584-8,8v96c0,4.416,3.576,8,8,8h72c4.424,0,8-3.584,8-8V48C152,43.584,148.424,40,144,40z
			 M136,136H80V56h56V136z"/>
	</g>
</g>
<g>
	<g>
		<path d="M144,168H72c-4.424,0-8,3.584-8,8v96c0,4.416,3.576,8,8,8h72c4.424,0,8-3.584,8-8v-96C152,171.584,148.424,168,144,168z
			 M136,264H80v-80h56V264z"/>
	</g>
</g>
<g>
	<g>
		<path d="M144,296H72c-4.424,0-8,3.584-8,8v96c0,4.416,3.576,8,8,8h72c4.424,0,8-3.584,8-8v-96C152,299.584,148.424,296,144,296z
			 M136,392H80v-80h56V392z"/>
	</g>
</g>
<g>
	<g>
		<rect x="168" y="56" width="48" height="16"/>
	</g>
</g>
<g>
	<g>
		<rect x="168" y="88" width="48" height="16"/>
	</g>
</g>
<g>
	<g>
		<rect x="168" y="120" width="48" height="16"/>
	</g>
</g>
<g>
	<g>
		<rect x="296" y="56" width="120" height="16"/>
	</g>
</g>
<g>
	<g>
		<rect x="264" y="88" width="152" height="16"/>
	</g>
</g>
<g>
	<g>
		<rect x="264" y="120" width="152" height="16"/>
	</g>
</g>
<g>
	<g>
		<rect x="296" y="184" width="120" height="16"/>
	</g>
</g>
<g>
	<g>
		<rect x="264" y="216" width="152" height="16"/>
	</g>
</g>
<g>
	<g>
		<rect x="264" y="248" width="152" height="16"/>
	</g>
</g>
<g>
	<g>
		<rect x="296" y="312" width="120" height="16"/>
	</g>
</g>
<g>
	<g>
		<rect x="264" y="344" width="152" height="16"/>
	</g>
</g>
<g>
	<g>
		<rect x="264" y="376" width="56" height="16"/>
	</g>
</g>
<g>
	<g>
		<rect x="168" y="184" width="48" height="16"/>
	</g>
</g>
<g>
	<g>
		<rect x="168" y="216" width="48" height="16"/>
	</g>
</g>
<g>
	<g>
		<rect x="168" y="248" width="48" height="16"/>
	</g>
</g>
<g>
	<g>
		<rect x="168" y="312" width="48" height="16"/>
	</g>
</g>
<g>
	<g>
		<rect x="168" y="344" width="48" height="16"/>
	</g>
</g>
<g>
	<g>
		<rect x="168" y="376" width="48" height="16"/>
	</g>
</g>
<g>
	<g>
		<rect x="336" y="376" width="16" height="16"/>
	</g>
</g>
<g>
	<g>
		<rect x="368" y="376" width="16" height="16"/>
	</g>
</g>
<g>
	<g>
		<rect x="400" y="376" width="16" height="16"/>
	</g>
</g>
<g>
</g>
<g>
</g>
<g>
</g>
<g>
</g>
<g>
</g>
<g>
</g>
<g>
</g>
<g>
</g>
<g>
</g>
<g>
</g>
<g>
</g>
<g>
</g>
<g>
</g>
<g>
</g>
<g>
</g>
</svg>
