<?xml version="1.0" encoding="iso-8859-1"?>
<!-- Generator: Adobe Illustrator 19.0.0, SVG Export Plug-In . SVG Version: 6.00 Build 0)  -->
<svg version="1.1" id="Capa_1" xmlns="http://www.w3.org/2000/svg" xmlns:xlink="http://www.w3.org/1999/xlink" x="0px" y="0px"
	 viewBox="0 0 480 480" style="enable-background:new 0 0 480 480;" xml:space="preserve">
<g>
	<g>
		<rect x="168" y="304" width="96" height="16"/>
	</g>
</g>
<g>
	<g>
		<rect x="192" y="368" width="16" height="16"/>
	</g>
</g>
<g>
	<g>
		<rect x="160" y="368" width="16" height="16"/>
	</g>
</g>
<g>
	<g>
		<path d="M374.4,412.8c0.144-0.192,0.216-0.416,0.344-0.616c0.128-0.208,0.304-0.384,0.416-0.6c0.064-0.12,0.072-0.256,0.128-0.384
			c0.152-0.344,0.256-0.696,0.352-1.056c0.096-0.352,0.192-0.696,0.24-1.048c0.048-0.36,0.048-0.72,0.048-1.088
			c0-0.368,0-0.72-0.048-1.088c-0.048-0.36-0.144-0.704-0.24-1.048c-0.104-0.36-0.2-0.712-0.352-1.056
			c-0.056-0.128-0.064-0.264-0.128-0.384c-0.112-0.224-0.288-0.392-0.416-0.6c-0.128-0.2-0.2-0.424-0.344-0.616
			c-12.008-16.016-12.008-38.384,0-54.4c0.144-0.192,0.216-0.416,0.344-0.616c0.128-0.208,0.304-0.384,0.416-0.6
			c0.064-0.12,0.072-0.256,0.128-0.384c0.152-0.344,0.256-0.696,0.352-1.056c0.096-0.352,0.192-0.696,0.24-1.048
			c0.048-0.36,0.048-0.72,0.048-1.088c0-0.368,0-0.72-0.048-1.088c-0.048-0.36-0.144-0.704-0.24-1.048
			c-0.104-0.36-0.2-0.712-0.352-1.056c-0.056-0.128-0.064-0.264-0.128-0.384c-0.112-0.224-0.288-0.392-0.416-0.6
			c-0.128-0.2-0.2-0.424-0.344-0.616c-12.008-16.016-12.008-38.384,0-54.4c1.824-2.424,2.112-5.664,0.76-8.376
			C373.8,273.712,371.032,272,368,272h-8V104c0-3.656-2.48-6.848-6.024-7.752c-3.536-0.904-7.24,0.712-9,3.92l-40.672,74.56
			L251.432,68.976C258.88,64.896,264,57.072,264,48c0-13.232-10.768-24-24-24s-24,10.768-24,24c0,9.072,5.12,16.896,12.568,20.968
			L175.696,174.72l-40.672-74.56c-1.752-3.208-5.472-4.816-9-3.92C122.48,97.152,120,100.344,120,104v176
			c0,0.064,0.032,0.112,0.032,0.176C110.36,287.48,104,298.968,104,312c0,13.128,6.448,24.704,16.248,32
			c-9.8,7.296-16.248,18.872-16.248,32s6.448,24.704,16.248,32c-9.8,7.296-16.248,18.872-16.248,32c0,22.056,17.944,40,40,40h224
			c3.032,0,5.8-1.712,7.16-4.424c1.352-2.712,1.064-5.952-0.76-8.376C362.392,451.184,362.392,428.816,374.4,412.8z M240,40
			c4.416,0,8,3.592,8,8s-3.584,8-8,8c-4.416,0-8-3.592-8-8S235.584,40,240,40z M136,135.376l32.976,60.456
			c1.432,2.608,4.248,4.032,7.168,4.168c2.984-0.056,5.68-1.76,7.016-4.424L240,81.888l56.84,113.688
			c1.336,2.664,4.032,4.368,7.016,4.424c2.976-0.12,5.736-1.56,7.168-4.168L344,135.376V272H144h-8V135.376z M350,448
			c0.712,5.464,2.08,10.856,4.248,16H144c-13.232,0-24-10.768-24-24s10.768-24,24-24h210.248c-2.168,5.144-3.544,10.536-4.248,16
			H160v16H350z M350,384c0.712,5.464,2.08,10.856,4.248,16H144c-13.232,0-24-10.768-24-24s10.768-24,24-24h210.248
			c-2.168,5.144-3.544,10.536-4.248,16H224v16H350z M350,320c0.712,5.464,2.08,10.856,4.248,16H144c-13.232,0-24-10.768-24-24
			s10.768-24,24-24h208h2.248c-2.168,5.144-3.544,10.536-4.248,16h-70v16H350z"/>
	</g>
</g>
<g>
	<g>
		<rect x="152" y="240" width="16" height="16"/>
	</g>
</g>
<g>
	<g>
		<rect x="184" y="240" width="16" height="16"/>
	</g>
</g>
<g>
	<g>
		<rect x="216" y="240" width="16" height="16"/>
	</g>
</g>
<g>
	<g>
		<rect x="248" y="240" width="16" height="16"/>
	</g>
</g>
<g>
	<g>
		<rect x="280" y="240" width="16" height="16"/>
	</g>
</g>
<g>
	<g>
		<rect x="312" y="240" width="16" height="16"/>
	</g>
</g>
<g>
	<g>
		<path d="M240,168c-13.232,0-24,12.56-24,28s10.768,28,24,28s24-12.56,24-28S253.232,168,240,168z M240,208c-4.256,0-8-5.608-8-12
			c0-6.392,3.744-12,8-12c4.256,0,8,5.608,8,12C248,202.392,244.256,208,240,208z"/>
	</g>
</g>
<g>
	<g>
		<path d="M120,32c-13.232,0-24-10.768-24-24c0-4.416-3.576-8-8-8s-8,3.584-8,8c0,13.232-10.768,24-24,24c-4.424,0-8,3.584-8,8
			s3.576,8,8,8c13.232,0,24,10.768,24,24c0,4.416,3.576,8,8,8s8-3.584,8-8c0-13.232,10.768-24,24-24c4.424,0,8-3.584,8-8
			S124.424,32,120,32z M88,48.024c-2.28-3.032-4.984-5.744-8.024-8.024c3.04-2.28,5.744-4.992,8.024-8.024
			c2.28,3.032,4.984,5.744,8.024,8.024C92.984,42.28,90.28,44.992,88,48.024z"/>
	</g>
</g>
<g>
	<g>
		<path d="M472,88c-13.232,0-24-10.768-24-24c0-4.416-3.576-8-8-8s-8,3.584-8,8c0,13.232-10.768,24-24,24c-4.424,0-8,3.584-8,8
			s3.576,8,8,8c13.232,0,24,10.768,24,24c0,4.416,3.576,8,8,8s8-3.584,8-8c0-13.232,10.768-24,24-24c4.424,0,8-3.584,8-8
			S476.424,88,472,88z M440,104.024c-2.28-3.032-4.984-5.744-8.024-8.024c3.04-2.28,5.744-4.992,8.024-8.024
			c2.28,3.032,4.984,5.744,8.024,8.024C444.984,98.28,442.28,100.992,440,104.024z"/>
	</g>
</g>
<g>
	<g>
		<path d="M72,272c-13.232,0-24-10.768-24-24c0-4.416-3.576-8-8-8s-8,3.584-8,8c0,13.232-10.768,24-24,24c-4.424,0-8,3.584-8,8
			c0,4.416,3.576,8,8,8c13.232,0,24,10.768,24,24c0,4.416,3.576,8,8,8s8-3.584,8-8c0-13.232,10.768-24,24-24c4.424,0,8-3.584,8-8
			C80,275.584,76.424,272,72,272z M40,288.024c-2.28-3.032-4.984-5.744-8.024-8.024c3.04-2.28,5.744-4.992,8.024-8.024
			c2.28,3.032,4.984,5.744,8.024,8.024C44.984,282.28,42.28,284.992,40,288.024z"/>
	</g>
</g>
<g>
</g>
<g>
</g>
<g>
</g>
<g>
</g>
<g>
</g>
<g>
</g>
<g>
</g>
<g>
</g>
<g>
</g>
<g>
</g>
<g>
</g>
<g>
</g>
<g>
</g>
<g>
</g>
<g>
</g>
</svg>
